<?xml version="1.0" encoding="UTF-8"?>
<!-- Generator: visioncortex VTracer 0.6.2 -->
<svg version="1.1" xmlns="http://www.w3.org/2000/svg" width="1280" height="1280">
<path d="M0 0 C47.52 0 95.04 0 144 0 C144 0.99 144 1.98 144 3 C144.55945313 2.98839844 145.11890625 2.97679687 145.6953125 2.96484375 C172.26619387 2.66581454 172.26619387 2.66581454 182.41015625 7.0390625 C185.62974645 8.23366158 188.44883922 8.31379835 191.875 8.4375 C197.34688766 8.75438284 200.98147508 9.79889258 206 12 C208.43127734 12.35770517 210.87025888 12.66451497 213.3125 12.9375 C218.96696148 13.59357321 223.41986343 14.78083883 228.5703125 17.11328125 C232.90512679 18.69527939 237.42107459 18.82589637 242 19 C242 19.66 242 20.32 242 21 C244.53285419 21.52482564 247.05520201 22.00833394 249.61328125 22.39453125 C255.04494338 23.23561352 259.28330426 24.44504937 264.07421875 27.11328125 C267.30938622 28.60290197 270.4709095 28.74792211 274 29 C274 29.66 274 30.32 274 31 C275.32 31 276.64 31 278 31 C278 31.66 278 32.32 278 33 C278.66386719 33.03738281 279.32773437 33.07476562 280.01171875 33.11328125 C285.27134897 33.50487416 288.51951496 34.12789421 293 37 C295.97062868 37.82854269 298.96855228 38.43862079 302 39 C302 39.66 302 40.32 302 41 C305.96 41.99 309.92 42.98 314 44 C314 44.66 314 45.32 314 46 C315.32 46 316.64 46 318 46 C318 46.66 318 47.32 318 48 C319.216875 48.103125 320.43375 48.20625 321.6875 48.3125 C325.4800748 48.7782548 327.76834771 49.92842802 331 52 C332.216875 52.33 333.43375 52.66 334.6875 53 C338 54 338 54 340 57 C341.89179203 57.6814823 341.89179203 57.6814823 344 58 C346.125 58.375 346.125 58.375 348 59 C348.66 59.99 349.32 60.98 350 62 C351.89179203 62.6814823 351.89179203 62.6814823 354 63 C356.125 63.375 356.125 63.375 358 64 C358.66 64.99 359.32 65.98 360 67 C361.89179203 67.6814823 361.89179203 67.6814823 364 68 C366.125 68.375 366.125 68.375 368 69 C368.66 69.99 369.32 70.98 370 72 C371.89179203 72.6814823 371.89179203 72.6814823 374 73 C376.125 73.375 376.125 73.375 378 74 C378.66 74.99 379.32 75.98 380 77 C383.05429073 78.21284876 383.05429073 78.21284876 386 79 C386 79.66 386 80.32 386 81 C389.3 81.99 392.6 82.98 396 84 C396 84.66 396 85.32 396 86 C396.70125 86.226875 397.4025 86.45375 398.125 86.6875 C401 88 401 88 404 90.5625 C407.0422192 93.0343031 408.33358172 93.28708533 412 94 C412.6837045 95.32467746 413.34964186 96.65863633 414 98 C416.39068734 99.10636395 416.39068734 99.10636395 419 100 C420.34789347 100.98028616 421.68212715 101.97971135 423 103 C424.31747324 103.69748583 425.64914193 104.36959957 427 105 C427.66 105.33 428.32 105.66 429 106 C429 106.66 429 107.32 429 108 C429.7425 108.268125 430.485 108.53625 431.25 108.8125 C433.8902738 109.95261823 435.74142947 111.25142927 438 113 C439.31747324 113.69748583 440.64914193 114.36959957 442 115 C442.66 115.33 443.32 115.66 444 116 C444 116.66 444 117.32 444 118 C444.763125 118.268125 445.52625 118.53625 446.3125 118.8125 C448.92313504 119.96603641 450.07385089 120.98629865 452 123 C452.99 123.33 453.98 123.66 455 124 C455 124.66 455 125.32 455 126 C455.99 126 456.98 126 458 126 C458 126.66 458 127.32 458 128 C458.804375 128.268125 459.60875 128.53625 460.4375 128.8125 C461.283125 129.204375 462.12875 129.59625 463 130 C463.33 130.99 463.66 131.98 464 133 C465.32 133 466.64 133 468 133 C469.01351664 134.65848177 470.01120795 136.32665961 471 138 C473.81711646 140.12821884 473.81711646 140.12821884 477 142 C479.0340906 143.28072371 481.04402816 144.60287726 483 146 C483 146.66 483 147.32 483 148 C484.0828125 148.3403125 484.0828125 148.3403125 485.1875 148.6875 C488.57685109 150.26919718 490.5424688 152.20114502 493 155 C493.33 155.99 493.66 156.98 494 158 C495.32338632 158.68620031 496.65949948 159.34786461 498 160 C500.8703876 162.27239019 503.57352637 164.56098303 506.125 167.1875 C507.82609798 169.04621619 507.82609798 169.04621619 509.72802734 169.74291992 C513.06357769 171.58847642 515.55500453 174.24990361 518.2265625 176.92578125 C518.81545258 177.5103862 519.40434265 178.09499115 520.01107788 178.6973114 C521.25244335 179.93294439 522.49121053 181.17119249 523.72753906 182.41186523 C525.61660866 184.30409463 527.51860339 186.18261613 529.421875 188.06054688 C530.62841474 189.26481345 531.83417056 190.46986603 533.0390625 191.67578125 C533.60678375 192.23429276 534.174505 192.79280426 534.75942993 193.36824036 C537.80121572 196.44594406 539.53561089 198.86401928 541 203 C542.38537107 204.75989965 542.38537107 204.75989965 544.0390625 206.26171875 C544.61914062 206.82310547 545.19921875 207.38449219 545.796875 207.96289062 C546.40015625 208.53201172 547.0034375 209.10113281 547.625 209.6875 C549.8002116 211.75486883 551.91057513 213.84288953 554 216 C554 216.66 554 217.32 554 218 C554.9590625 218.4021875 554.9590625 218.4021875 555.9375 218.8125 C558 220 558 220 559 223 C559.66 223 560.32 223 561 223 C564 226.46153846 564 226.46153846 564 229 C564.66 229 565.32 229 566 229 C566.2371875 229.72058594 566.474375 230.44117188 566.71875 231.18359375 C568.20088277 234.44157462 570.03695151 236.47549939 572.5 239.0625 C575.21061631 241.9183279 577.45224494 244.35772858 579 248 C579.66 248 580.32 248 581 248 C581 248.66 581 249.32 581 250 C581.66 250 582.32 250 583 250 C583.33 251.32 583.66 252.64 584 254 C584.66 254 585.32 254 586 254 C588 257 588 257 589.4375 260 C590.80013918 262.61626723 591.91945984 264.01853318 594 266 C594 266.66 594 267.32 594 268 C594.66 268 595.32 268 596 268 C597.49524178 270.2727675 598.78399715 272.5679943 600 275 C600.66 275.66 601.32 276.32 602 277 C602 277.66 602 278.32 602 279 C602.66 279.33 603.32 279.66 604 280 C604 280.99 604 281.98 604 283 C604.66 283 605.32 283 606 283 C607.49524178 285.2727675 608.78399715 287.5679943 610 290 C610.66 290.66 611.32 291.32 612 292 C612.71408334 293.98356483 613.38617742 295.98315437 614 298 C614.66 298 615.32 298 616 298 C617.69019174 300.46486295 618.93572721 302.83128391 620 305.625 C620.8449367 308.04930584 620.8449367 308.04930584 622.625 309.625 C623.07875 310.07875 623.5325 310.5325 624 311 C624 311.99 624 312.98 624 314 C624.66 314 625.32 314 626 314 C627 317 628 320 629 323 C629.66 323 630.32 323 631 323 C631.268125 324.093125 631.53625 325.18625 631.8125 326.3125 C632.65182089 329.87997922 632.65182089 329.87997922 634.5 331.5 C636.84128395 333.84128395 637.10403761 336.86413163 638 340 C638.495 340.495 638.99 340.99 639.5 341.5 C641.84128395 343.84128395 642.10403761 346.86413163 643 350 C643.495 350.495 643.99 350.99 644.5 351.5 C646.84128395 353.84128395 647.10403761 356.86413163 648 360 C648.495 360.495 648.99 360.99 649.5 361.5 C651.84128395 363.84128395 652.10403761 366.86413163 653 370 C653.495 370.495 653.99 370.99 654.5 371.5 C656.84128395 373.84128395 657.10403761 376.86413163 658 380 C658.7734375 380.7425 658.7734375 380.7425 659.5625 381.5 C661.85313812 383.89023108 661.58630001 386.80860007 662 390 C662.66 390.33 663.32 390.66 664 391 C666.55850369 394.97384616 666.32545525 398.94498267 666.4609375 403.5390625 C666.73572097 406.16677184 666.73572097 406.16677184 669.0390625 407.3359375 C669.68617187 407.55507813 670.33328125 407.77421875 671 408 C671 410.31 671 412.62 671 415 C671.99 415.33 672.98 415.66 674 416 C675.8171126 418.79274352 676.22512292 421.08923318 676.375 424.375 C676.68033995 427.84682829 676.98571799 428.97857699 679 432 C681.35153022 435.52729533 681.38529107 437.73230605 681.65234375 441.84765625 C681.8865839 444.2931668 681.8865839 444.2931668 684.0625 446.9375 C686.79508228 451.25674296 686.35416899 455.02195803 686 460 C686.99 460.33 687.98 460.66 689 461 C691.33192946 466.31774454 691.39774941 471.5502056 691.65625 477.26953125 C691.7696875 478.17058594 691.883125 479.07164062 692 480 C692.66 480.33 693.32 480.66 694 481 C694 482.32 694 483.64 694 485 C694.66 485 695.32 485 696 485 C696.04898437 486.07121094 696.09796875 487.14242188 696.1484375 488.24609375 C696.22345294 489.64325639 696.2990013 491.0403905 696.375 492.4375 C696.4059375 493.14455078 696.436875 493.85160156 696.46875 494.58007812 C696.57280629 496.39239188 696.77919892 498.19817988 697 500 C697.66 500.33 698.32 500.66 699 501 C701.30114592 506.18171708 701.42360309 511.30301883 701.625 516.875 C701.66367188 517.75414062 701.70234375 518.63328125 701.7421875 519.5390625 C701.83581034 521.69238793 701.91896459 523.84616414 702 526 C702.66 526 703.32 526 704 526 C704.144375 527.134375 704.28875 528.26875 704.4375 529.4375 C704.61171478 532.80777201 704.61171478 532.80777201 706 534 C706.13327251 535.65943959 706.20340631 537.32404596 706.24609375 538.98828125 C706.27896484 540.00470703 706.31183594 541.02113281 706.34570312 542.06835938 C706.40656667 544.21930294 706.46389795 546.37034955 706.51757812 548.52148438 C706.56881836 550.05192383 706.56881836 550.05192383 706.62109375 551.61328125 C706.6461499 552.54954346 706.67120605 553.48580566 706.69702148 554.45043945 C707.01114171 557.09375738 707.78889534 558.66462007 709 561 C709.0777346 563.33203812 709.08967728 565.66839059 709 568 C709.99 568 710.98 568 712 568 C712 615.52 712 663.04 712 712 C711.01 712 710.02 712 709 712 C709.061875 713.6396875 709.061875 713.6396875 709.125 715.3125 C709 719 709 719 707 722 C706.69664198 724.76121525 706.69664198 724.76121525 706.7265625 727.875 C706.7059375 729.02484375 706.6853125 730.1746875 706.6640625 731.359375 C706.6380216 733.78638709 706.61979186 736.21349556 706.609375 738.640625 C706.58617187 739.79046875 706.56296875 740.9403125 706.5390625 742.125 C706.52673584 743.70667969 706.52673584 743.70667969 706.51416016 745.3203125 C705.86369455 748.71039345 704.71049437 749.05101444 702 751 C701.40842572 753.28985637 701.40842572 753.28985637 701.49609375 755.859375 C701.47740234 756.81070313 701.45871094 757.76203125 701.43945312 758.7421875 C701.43880859 759.73476563 701.43816406 760.72734375 701.4375 761.75 C701.40588931 768.59597332 701.22526673 773.87455973 698 780 C697.34 780 696.68 780 696 780 C696.03480469 780.94101562 696.06960938 781.88203125 696.10546875 782.8515625 C696.14607422 784.71941406 696.14607422 784.71941406 696.1875 786.625 C696.22230469 787.85476563 696.25710938 789.08453125 696.29296875 790.3515625 C695.9787947 794.26407664 694.96906533 796.64070218 693 800 C692.34 800 691.68 800 691 800 C691.03480469 800.94101562 691.06960938 801.88203125 691.10546875 802.8515625 C691.14607422 804.71941406 691.14607422 804.71941406 691.1875 806.625 C691.22230469 807.85476563 691.25710938 809.08453125 691.29296875 810.3515625 C690.96573355 814.42673146 689.97849003 818.02150997 687 821 C686.86798654 822.39347545 686.76941967 823.79018452 686.6875 825.1875 C686.35170383 828.68858791 686.04826624 829.92910897 684 832.9375 C681.24784909 837.15173107 681.19526785 841.05972348 681 846 C680.34 846 679.68 846 679 846 C678.855625 846.639375 678.71125 847.27875 678.5625 847.9375 C678 850 678 850 677 851 C676.81617544 852.41223948 676.67765727 853.83051044 676.5625 855.25 C676.20959335 858.8189108 675.5777322 861.73935345 674 865 C673.01 865 672.02 865 671 865 C671.12375 866.8871875 671.12375 866.8871875 671.25 868.8125 C671.390625 870.95703125 671.390625 870.95703125 671 873 C670.02546875 873.7115625 670.02546875 873.7115625 669.03125 874.4375 C666.76447585 875.84477466 666.76447585 875.84477466 666.390625 878.48046875 C666.32101562 879.82044922 666.32101562 879.82044922 666.25 881.1875 C666.19328125 882.08855469 666.1365625 882.98960937 666.078125 883.91796875 C666.05234375 884.60503906 666.0265625 885.29210937 666 886 C665.34 886 664.68 886 664 886 C663.855625 886.639375 663.71125 887.27875 663.5625 887.9375 C663 890 663 890 662 891 C661.63239269 893.32817964 661.29758419 895.6618385 661 898 C659.35 898.66 657.7 899.32 656 900 C656 902.64 656 905.28 656 908 C654.35 908.66 652.7 909.32 651 910 C651 912.64 651 915.28 651 918 C649.35 918.66 647.7 919.32 646 920 C646 922.64 646 925.28 646 928 C644.35 928.66 642.7 929.32 641 930 C641 932.64 641 935.28 641 938 C639.35 938.66 637.7 939.32 636 940 C636 942.64 636 945.28 636 948 C634.35 948.66 632.7 949.32 631 950 C631.061875 950.9075 631.12375 951.815 631.1875 952.75 C630.98313144 956.29238832 630.47346304 957.52653696 628 960 C627.34 960 626.68 960 626 960 C626.09152344 960.886875 626.18304687 961.77375 626.27734375 962.6875 C625.92164768 966.93581368 624.57580388 968.06661214 621.5625 971 C617.85637294 974.61912877 616.41701862 976.78347613 616 982 C615.34 982 614.68 982 614 982 C613.773125 982.556875 613.54625 983.11375 613.3125 983.6875 C612 986 612 986 609.4375 988.375 C606.67718624 991.34764558 606.27745015 993.02321445 606 997 C605.34 997 604.68 997 604 997 C603.773125 997.556875 603.54625 998.11375 603.3125 998.6875 C602 1001 602 1001 599.4375 1003.375 C596.67718624 1006.34764558 596.27745015 1008.02321445 596 1012 C595.34 1012 594.68 1012 594 1012 C593.773125 1012.556875 593.54625 1013.11375 593.3125 1013.6875 C592 1016 592 1016 589.4375 1018.4375 C586.88789526 1021.1178537 586.30937021 1022.39068083 586 1026 C585.34 1026 584.68 1026 584 1026 C583.731875 1026.804375 583.46375 1027.60875 583.1875 1028.4375 C582.795625 1029.283125 582.40375 1030.12875 582 1031 C581.01 1031.33 580.02 1031.66 579 1032 C578.71253906 1032.57878906 578.42507813 1033.15757813 578.12890625 1033.75390625 C576.11890395 1037.75304577 572.46270587 1040.4499703 569.21484375 1043.46484375 C566.89922888 1046.11534472 566.30257504 1047.54817459 566 1051 C565.34 1051 564.68 1051 564 1051 C563.731875 1051.804375 563.46375 1052.60875 563.1875 1053.4375 C562.795625 1054.283125 562.40375 1055.12875 562 1056 C561.01 1056.33 560.02 1056.66 559 1057 C558.67 1057.66 558.34 1058.32 558 1059 C557.67 1059.66 557.34 1060.32 557 1061 C556.01 1061.33 555.02 1061.66 554 1062 C553.71817871 1062.56523376 553.43635742 1063.13046753 553.14599609 1063.71282959 C551.55562271 1066.88688487 549.15635341 1069.12209233 546.6640625 1071.59472656 C546.12078308 1072.14151062 545.57750366 1072.68829468 545.01776123 1073.25164795 C543.22516477 1075.05302948 541.42537258 1076.84701768 539.625 1078.640625 C538.37682289 1079.89014929 537.12894281 1081.13997035 535.88134766 1082.39007568 C533.26854023 1085.00582968 530.65215399 1087.61793646 528.03320312 1090.22753906 C524.67024761 1093.57907676 521.316381 1096.93954389 517.96511841 1100.30276871 C515.39174416 1102.88335399 512.81364522 1105.45917646 510.23406982 1108.03356171 C508.99498501 1109.27130915 507.75739297 1110.5105528 506.52130127 1111.75128937 C504.79762761 1113.48001837 503.06771477 1115.20224581 501.3359375 1116.92285156 C500.82262878 1117.44020874 500.30932007 1117.95756592 499.78045654 1118.49060059 C496.22853184 1122 496.22853184 1122 494 1122 C493.5978125 1122.9590625 493.5978125 1122.9590625 493.1875 1123.9375 C492 1126 492 1126 489 1127 C488.5359375 1127.99 488.5359375 1127.99 488.0625 1129 C487 1131 487 1131 484.875 1131.75 C484.25625 1131.8325 483.6375 1131.915 483 1132 C483 1132.66 483 1133.32 483 1134 C482.12859375 1134.21398438 481.2571875 1134.42796875 480.359375 1134.6484375 C476.40814769 1136.23811733 474.0658844 1138.55170789 471.25 1141.625 C469.5344681 1143.4647125 467.80083181 1145.24036369 466 1147 C465.34 1147 464.68 1147 464 1147 C463.67 1147.99 463.34 1148.98 463 1150 C460.4375 1151.1875 460.4375 1151.1875 458 1152 C458 1152.66 458 1153.32 458 1154 C456.6696875 1154.309375 456.6696875 1154.309375 455.3125 1154.625 C452.07492337 1155.96889973 451.33389059 1156.5119829 449.3125 1159.125 C448.549375 1160.07375 447.78625 1161.0225 447 1162 C446.01 1162 445.02 1162 444 1162 C444 1162.66 444 1163.32 444 1164 C442.4221875 1164.309375 442.4221875 1164.309375 440.8125 1164.625 C437.67235055 1165.48774813 436.23311379 1166.5536231 434.25 1169.125 C433.5075 1170.07375 432.765 1171.0225 432 1172 C431.01 1172 430.02 1172 429 1172 C429 1172.66 429 1173.32 429 1174 C427.4221875 1174.309375 427.4221875 1174.309375 425.8125 1174.625 C422.67235055 1175.48774813 421.23311379 1176.5536231 419.25 1179.125 C418.5075 1180.07375 417.765 1181.0225 417 1182 C416.01 1182 415.02 1182 414 1182 C414 1182.66 414 1183.32 414 1184 C412.948125 1184.226875 411.89625 1184.45375 410.8125 1184.6875 C406.81870143 1185.79285435 404.83569172 1188.00676985 402 1191 C401.01 1191 400.02 1191 399 1191 C398.67 1191.99 398.34 1192.98 398 1194 C396.02 1194 394.04 1194 392 1194 C391.67 1194.99 391.34 1195.98 391 1197 C390.34 1197 389.68 1197 389 1197 C389 1197.66 389 1198.32 389 1199 C387.6078125 1199.12375 387.6078125 1199.12375 386.1875 1199.25 C382.91893494 1199.65085722 382.91893494 1199.65085722 381.5625 1202 C379.23908506 1204.97397112 376.62249682 1204.48250045 373 1205 C372.505 1205.66 372.01 1206.32 371.5 1207 C369.24604265 1210.00527647 366.59738352 1209.48608807 363 1210 C362.505 1210.66 362.01 1211.32 361.5 1212 C359.24604265 1215.00527647 356.59738352 1214.48608807 353 1215 C352.505 1215.66 352.01 1216.32 351.5 1217 C349.24604265 1220.00527647 346.59738352 1219.48608807 343 1220 C342.505 1220.66 342.01 1221.32 341.5 1222 C339.24604265 1225.00527647 336.59738352 1224.48608807 333 1225 C332.505 1225.66 332.01 1226.32 331.5 1227 C330 1229 330 1229 326.6875 1229.5 C324.8621875 1229.7475 324.8621875 1229.7475 323 1230 C322.05125 1230.66 321.1025 1231.32 320.125 1232 C316.97647885 1234.01505354 315.87731151 1234.26964061 312.3125 1234.5 C310.01940462 1234.61074858 310.01940462 1234.61074858 308 1235 C306.36323743 1236.9600281 306.36323743 1236.9600281 305 1239 C302.6693782 1239.35179197 300.33564933 1239.68330179 298 1240 C296.6078125 1240.9590625 296.6078125 1240.9590625 295.1875 1241.9375 C289.30193602 1245.7458061 282.85472154 1246 276 1246 C276.33 1246.99 276.66 1247.98 277 1249 C276.33613281 1249.10957031 275.67226563 1249.21914062 274.98828125 1249.33203125 C269.511076 1250.25320357 269.511076 1250.25320357 264.5 1252.5 C258.94475024 1255.83314985 252.3275173 1256 246 1256 C245.67 1256.99 245.34 1257.98 245 1259 C244.16855469 1259.04898437 243.33710937 1259.09796875 242.48046875 1259.1484375 C241.39378906 1259.22320313 240.30710937 1259.29796875 239.1875 1259.375 C238.10855469 1259.44460938 237.02960937 1259.51421875 235.91796875 1259.5859375 C232.81373814 1259.81195733 232.81373814 1259.81195733 230 1262 C227.8125 1261.625 227.8125 1261.625 226 1261 C226.33 1261.99 226.66 1262.98 227 1264 C226.02417969 1264.04898437 225.04835938 1264.09796875 224.04296875 1264.1484375 C222.77066406 1264.22320313 221.49835937 1264.29796875 220.1875 1264.375 C218.29064453 1264.47941406 218.29064453 1264.47941406 216.35546875 1264.5859375 C212.87244766 1264.76102939 212.87244766 1264.76102939 210 1267 C209.01 1267 208.02 1267 207 1267 C206.34 1267.66 205.68 1268.32 205 1269 C201.36384747 1269.32518437 197.7677479 1269.46461131 194.12109375 1269.56640625 C189.58723296 1269.54846181 189.58723296 1269.54846181 186 1272 C183.66752239 1272.33926947 181.33414529 1272.67240066 179 1273 C178.01 1273.66 177.02 1274.32 176 1275 C173.79516602 1275.1953125 173.79516602 1275.1953125 171.25390625 1275.125 C170.33416016 1275.10953125 169.41441406 1275.0940625 168.46679688 1275.078125 C166.53450238 1275.02614667 164.6022107 1274.97406376 162.66992188 1274.921875 C161.74888672 1274.90640625 160.82785156 1274.8909375 159.87890625 1274.875 C159.0391626 1274.85179687 158.19941895 1274.82859375 157.33422852 1274.8046875 C154.75916928 1275.02015109 153.27119087 1275.82287767 151 1277 C148.66796188 1277.0777346 146.33160941 1277.08967728 144 1277 C144 1277.99 144 1278.98 144 1280 C96.48 1280 48.96 1280 0 1280 C0 1279.01 0 1278.02 0 1277 C-1.98567708 1277.06510417 -3.97135417 1277.13020833 -5.95703125 1277.1953125 C-8 1277 -8 1277 -11 1275 C-13.66341835 1274.69695992 -13.66341835 1274.69695992 -16.65625 1274.7265625 C-17.76097656 1274.7059375 -18.86570312 1274.6853125 -20.00390625 1274.6640625 C-22.33456123 1274.63802166 -24.66531658 1274.61979188 -26.99609375 1274.609375 C-28.65318359 1274.57457031 -28.65318359 1274.57457031 -30.34375 1274.5390625 C-31.86258789 1274.52673584 -31.86258789 1274.52673584 -33.41210938 1274.51416016 C-36.71735033 1273.85747738 -37.08161951 1272.64277905 -39 1270 C-41.28985637 1269.40842572 -41.28985637 1269.40842572 -43.859375 1269.49609375 C-44.81070313 1269.47740234 -45.76203125 1269.45871094 -46.7421875 1269.43945312 C-47.73476563 1269.43880859 -48.72734375 1269.43816406 -49.75 1269.4375 C-64.63121272 1269.36878728 -64.63121272 1269.36878728 -69 1265 C-71.06014601 1264.84084709 -73.12353854 1264.72295071 -75.1875 1264.625 C-80.50811851 1264.26289424 -85.06097695 1263.93902305 -89 1260 C-91.06014601 1259.84084709 -93.12353854 1259.72295071 -95.1875 1259.625 C-100.50811851 1259.26289424 -105.06097695 1258.93902305 -109 1255 C-110.41223948 1254.81617544 -111.83051044 1254.67765727 -113.25 1254.5625 C-116.80909831 1254.19978934 -119.79743674 1253.70136173 -123 1252 C-123.33 1251.34 -123.66 1250.68 -124 1250 C-126.35599235 1249.53248212 -126.35599235 1249.53248212 -129.0625 1249.375 C-129.98160156 1249.30023437 -130.90070313 1249.22546875 -131.84765625 1249.1484375 C-132.55792969 1249.09945313 -133.26820313 1249.05046875 -134 1249 C-134 1248.34 -134 1247.68 -134 1247 C-135.32 1247 -136.64 1247 -138 1247 C-138.33 1246.34 -138.66 1245.68 -139 1245 C-140.92806341 1244.68344336 -140.92806341 1244.68344336 -143.1875 1244.625 C-147.79442616 1244.23199208 -150.19566192 1242.64649605 -154 1240 C-155.216875 1239.835 -156.43375 1239.67 -157.6875 1239.5 C-158.780625 1239.335 -159.87375 1239.17 -161 1239 C-161.68449219 1238.01773437 -161.68449219 1238.01773437 -162.3828125 1237.015625 C-163.84814429 1234.77071198 -163.84814429 1234.77071198 -166.48046875 1234.390625 C-167.82044922 1234.32101562 -167.82044922 1234.32101562 -169.1875 1234.25 C-170.08855469 1234.19328125 -170.98960937 1234.1365625 -171.91796875 1234.078125 C-172.60503906 1234.05234375 -173.29210937 1234.0265625 -174 1234 C-174 1233.34 -174 1232.68 -174 1232 C-175.32 1232 -176.64 1232 -178 1232 C-178.33 1231.34 -178.66 1230.68 -179 1230 C-180.670625 1229.814375 -180.670625 1229.814375 -182.375 1229.625 C-186.67442376 1228.88372004 -186.5609801 1228.25202654 -189 1225 C-190.7325 1224.7525 -190.7325 1224.7525 -192.5 1224.5 C-196.72867783 1223.89590317 -196.60256435 1223.19658087 -199 1220 C-200.7325 1219.7525 -200.7325 1219.7525 -202.5 1219.5 C-206.72867783 1218.89590317 -206.60256435 1218.19658087 -209 1215 C-210.7325 1214.7525 -210.7325 1214.7525 -212.5 1214.5 C-216.72867783 1213.89590317 -216.60256435 1213.19658087 -219 1210 C-220.7325 1209.7525 -220.7325 1209.7525 -222.5 1209.5 C-226.72867783 1208.89590317 -226.60256435 1208.19658087 -229 1205 C-230.7325 1204.7525 -230.7325 1204.7525 -232.5 1204.5 C-236 1204 -236 1204 -237.5625 1202.0625 C-238.036875 1201.381875 -238.51125 1200.70125 -239 1200 C-240.98248715 1199.28293018 -242.98415349 1198.61709587 -245 1198 C-246.33333333 1197 -247.66666667 1196 -249 1195 C-249.928125 1194.71125 -250.85625 1194.4225 -251.8125 1194.125 C-256.99919991 1192.29440003 -260.94377631 1189.58433554 -264 1185 C-267.06556598 1184.26656572 -267.06556598 1184.26656572 -270 1184 C-270 1183.34 -270 1182.68 -270 1182 C-270.53625 1181.773125 -271.0725 1181.54625 -271.625 1181.3125 C-274 1180 -274 1180 -276.9375 1177.4375 C-279.88227596 1175.09369873 -281.33454384 1174.3234226 -285 1174 C-285 1173.34 -285 1172.68 -285 1172 C-285.53625 1171.773125 -286.0725 1171.54625 -286.625 1171.3125 C-289 1170 -289 1170 -291.9375 1167.4375 C-294.88227596 1165.09369873 -296.33454384 1164.3234226 -300 1164 C-300 1163.34 -300 1162.68 -300 1162 C-300.556875 1161.7525 -301.11375 1161.505 -301.6875 1161.25 C-304.42410913 1159.77075182 -306.67650869 1158.06532561 -309 1156 C-309 1155.34 -309 1154.68 -309 1154 C-310.65 1154 -312.3 1154 -314 1154 C-314 1153.34 -314 1152.68 -314 1152 C-315.2065625 1151.5978125 -315.2065625 1151.5978125 -316.4375 1151.1875 C-317.7059375 1150.5996875 -317.7059375 1150.5996875 -319 1150 C-319.33 1149.01 -319.66 1148.02 -320 1147 C-321.83284443 1145.87483915 -321.83284443 1145.87483915 -324 1145 C-326.1875 1144.0625 -326.1875 1144.0625 -328 1143 C-328.33 1142.01 -328.66 1141.02 -329 1140 C-333.37998501 1135.80309017 -333.37998501 1135.80309017 -339 1134 C-339 1133.34 -339 1132.68 -339 1132 C-340.2065625 1131.5978125 -340.2065625 1131.5978125 -341.4375 1131.1875 C-342.7059375 1130.5996875 -342.7059375 1130.5996875 -344 1130 C-344.33 1129.01 -344.66 1128.02 -345 1127 C-347.01508358 1126.26676204 -347.01508358 1126.26676204 -349 1126 C-349.0825 1125.38125 -349.165 1124.7625 -349.25 1124.125 C-349.77749875 1121.8458972 -349.77749875 1121.8458972 -351.83203125 1121.0859375 C-354.26232839 1119.86859947 -355.60754248 1118.49478048 -357.4375 1116.5 C-360.10034462 1113.73959426 -362.21591561 1112.03202302 -366 1111 C-366 1110.01 -366 1109.02 -366 1108 C-367.0350769 1107.69509644 -367.0350769 1107.69509644 -368.09106445 1107.3840332 C-371.98792328 1105.52995912 -374.52994395 1102.90001946 -377.54296875 1099.85546875 C-378.45747551 1098.94526726 -378.45747551 1098.94526726 -379.39045715 1098.01667786 C-380.67407046 1096.73510087 -381.95392369 1095.44974812 -383.23022461 1094.16088867 C-385.18086864 1092.19418595 -387.14698776 1090.24399007 -389.11523438 1088.29492188 C-390.36294217 1087.04523157 -391.60971899 1085.79461093 -392.85546875 1084.54296875 C-393.44192673 1083.96258347 -394.0283847 1083.38219818 -394.63261414 1082.78422546 C-397.69527162 1079.66835758 -399.58724275 1077.21301936 -401 1073 C-403.1489859 1070.5640265 -403.1489859 1070.5640265 -405.625 1068.3125 C-407.11815063 1066.91119933 -408.58589391 1065.48102881 -410 1064 C-410 1063.34 -410 1062.68 -410 1062 C-410.9590625 1061.5978125 -410.9590625 1061.5978125 -411.9375 1061.1875 C-414 1060 -414 1060 -415 1057 C-415.99 1056.5359375 -415.99 1056.5359375 -417 1056.0625 C-417.99 1055.5365625 -417.99 1055.5365625 -419 1055 C-419.33333333 1053.66666667 -419.66666667 1052.33333333 -420 1051 C-420.9590625 1050.5359375 -420.9590625 1050.5359375 -421.9375 1050.0625 C-424.78700324 1048.59457409 -424.81738376 1046.95654061 -426 1044 C-429.66227345 1038.91389339 -429.66227345 1038.91389339 -435 1036 C-435 1034.68 -435 1033.36 -435 1032 C-435.639375 1031.7525 -436.27875 1031.505 -436.9375 1031.25 C-439 1030 -439 1030 -439.75 1027.875 C-439.8325 1027.25625 -439.915 1026.6375 -440 1026 C-440.66 1026 -441.32 1026 -442 1026 C-442 1025.01 -442 1024.02 -442 1023 C-442.99 1022.67 -443.98 1022.34 -445 1022 C-446 1020.1875 -446 1020.1875 -447 1018 C-447.53625 1017.29875 -448.0725 1016.5975 -448.625 1015.875 C-450 1014 -450 1014 -450 1012 C-450.66 1012 -451.32 1012 -452 1012 C-452 1011.34 -452 1010.68 -452 1010 C-452.66 1010 -453.32 1010 -454 1010 C-454.2475 1009.113125 -454.495 1008.22625 -454.75 1007.3125 C-456.04147017 1003.89010406 -457.67895325 1001.7852561 -460 999 C-460 998.34 -460 997.68 -460 997 C-460.66 997 -461.32 997 -462 997 C-462 996.34 -462 995.68 -462 995 C-462.66 995 -463.32 995 -464 995 C-464.2475 994.113125 -464.495 993.22625 -464.75 992.3125 C-466.04147017 988.89010406 -467.67895325 986.7852561 -470 984 C-470 983.34 -470 982.68 -470 982 C-470.66 982 -471.32 982 -472 982 C-473.92260062 979.11609907 -475.45291344 976.09417312 -477 973 C-478.52603596 970.32943707 -479.82122921 968.17877079 -482 966 C-482 965.01 -482 964.02 -482 963 C-482.66 963 -483.32 963 -484 963 C-484.495 960.03 -484.495 960.03 -485 957 C-485.66 957 -486.32 957 -487 957 C-488.5 954.75 -488.5 954.75 -490 952 C-490.391875 951.29875 -490.78375 950.5975 -491.1875 949.875 C-492 948 -492 948 -492 945 C-492.66 945 -493.32 945 -494 945 C-494.99 942.03 -495.98 939.06 -497 936 C-497.66 936 -498.32 936 -499 936 C-499.99 932.7 -500.98 929.4 -502 926 C-502.66 926 -503.32 926 -504 926 C-504.99 922.7 -505.98 919.4 -507 916 C-507.66 916 -508.32 916 -509 916 C-509.50615298 914.73160474 -510.00469099 913.46016898 -510.5 912.1875 C-510.7784375 911.47980469 -511.056875 910.77210938 -511.34375 910.04296875 C-512 908 -512 908 -512 905 C-512.66 905 -513.32 905 -514 905 C-517 898.375 -517 898.375 -517 895 C-517.66 895 -518.32 895 -519 895 C-519.19916016 894.07767578 -519.19916016 894.07767578 -519.40234375 893.13671875 C-519.57894531 892.32847656 -519.75554688 891.52023437 -519.9375 890.6875 C-520.19853516 889.48673828 -520.19853516 889.48673828 -520.46484375 888.26171875 C-520.99886159 885.854599 -520.99886159 885.854599 -522 883 C-522.66 883 -523.32 883 -524 883 C-524.19916016 882.09507812 -524.19916016 882.09507812 -524.40234375 881.171875 C-524.57894531 880.37265625 -524.75554688 879.5734375 -524.9375 878.75 C-525.11152344 877.96109375 -525.28554688 877.1721875 -525.46484375 876.359375 C-525.947556 874.23121297 -526.46163178 872.11467158 -527 870 C-527.66 870 -528.32 870 -529 870 C-529.19916016 869.09507812 -529.19916016 869.09507812 -529.40234375 868.171875 C-529.57894531 867.37265625 -529.75554688 866.5734375 -529.9375 865.75 C-530.11152344 864.96109375 -530.28554688 864.1721875 -530.46484375 863.359375 C-530.947556 861.23121297 -531.46163178 859.11467158 -532 857 C-532.66 857 -533.32 857 -534 857 C-534.16435547 855.86111328 -534.16435547 855.86111328 -534.33203125 854.69921875 C-534.49058594 853.70535156 -534.64914062 852.71148438 -534.8125 851.6875 C-534.96332031 850.70136719 -535.11414063 849.71523438 -535.26953125 848.69921875 C-535.76030294 845.98743637 -535.76030294 845.98743637 -537.50390625 844.515625 C-539.71324495 842.27744376 -539.70752601 840.13283141 -540.125 837.0625 C-540.60725059 833.64867343 -541.08604772 830.32710699 -542 827 C-542.66 827 -543.32 827 -544 827 C-544.10957031 826.11957031 -544.21914063 825.23914063 -544.33203125 824.33203125 C-544.49058594 823.17058594 -544.64914062 822.00914062 -544.8125 820.8125 C-545.03873047 819.08966797 -545.03873047 819.08966797 -545.26953125 817.33203125 C-545.80401482 814.0101903 -545.80401482 814.0101903 -547.53125 811.53125 C-549.46249994 808.20292563 -549.50894268 805.50862671 -549.6875 801.6875 C-549.75324219 800.43324219 -549.81898438 799.17898438 -549.88671875 797.88671875 C-549.92410156 796.93410156 -549.96148438 795.98148438 -550 795 C-550.99 794.67 -551.98 794.34 -553 794 C-553.09796875 793.06800781 -553.1959375 792.13601563 -553.296875 791.17578125 C-554.04728404 784.77789727 -554.88494391 778.86630026 -557 772.75 C-559.12948544 766.42440672 -559.77799118 760.24477969 -560.22851562 753.62207031 C-560.28845703 752.85088867 -560.34839844 752.07970703 -560.41015625 751.28515625 C-560.47408569 750.26240601 -560.47408569 750.26240601 -560.53930664 749.21899414 C-560.93162267 746.80988823 -560.93162267 746.80988823 -562.50488281 744.1652832 C-564.20560296 740.56472202 -564.42401083 738.03471048 -564.51171875 734.0703125 C-564.54716797 732.78125 -564.58261719 731.4921875 -564.61914062 730.1640625 C-564.64223493 728.81771358 -564.66501755 727.47135928 -564.6875 726.125 C-564.72070883 724.75517629 -564.75520175 723.38538308 -564.79101562 722.015625 C-564.87330159 718.6771659 -564.94251928 715.33896315 -565 712 C-565.99 712 -566.98 712 -568 712 C-568 664.48 -568 616.96 -568 568 C-567.01 568 -566.02 568 -565 568 C-564.67 558.1 -564.34 548.2 -564 538 C-563.34 538 -562.68 538 -562 538 C-562.33 535.69 -562.66 533.38 -563 531 C-562.01 530.67 -561.02 530.34 -560 530 C-559.93941406 528.84242188 -559.87882813 527.68484375 -559.81640625 526.4921875 C-559.73194498 524.95311543 -559.64729982 523.41405345 -559.5625 521.875 C-559.52318359 521.11445312 -559.48386719 520.35390625 -559.44335938 519.5703125 C-558.97010576 511.1245556 -558.97010576 511.1245556 -558 507 C-557.34 506.67 -556.68 506.34 -556 506 C-555.43759058 503.97179493 -555.43759058 503.97179493 -555.1484375 501.52734375 C-555.01953125 500.62822266 -554.890625 499.72910156 -554.7578125 498.80273438 C-554.63148438 497.85720703 -554.50515625 496.91167969 -554.375 495.9375 C-554.2409375 494.98810547 -554.106875 494.03871094 -553.96875 493.06054688 C-553.63774352 490.70803655 -553.31521928 488.35466906 -553 486 C-552.34 486 -551.68 486 -551 486 C-550.91959473 485.39937744 -550.83918945 484.79875488 -550.75634766 484.17993164 C-550.38860538 481.47275043 -550.0069977 478.76770485 -549.625 476.0625 C-549.49867188 475.11697266 -549.37234375 474.17144531 -549.2421875 473.19726562 C-549.11328125 472.29814453 -548.984375 471.39902344 -548.8515625 470.47265625 C-548.73635254 469.64000244 -548.62114258 468.80734863 -548.50244141 467.94946289 C-548.33663574 467.30614014 -548.17083008 466.66281738 -548 466 C-547.34 465.67 -546.68 465.34 -546 465 C-545.36139231 462.30202898 -544.83174758 459.66633377 -544.375 456.9375 C-544.2409375 456.17888672 -544.106875 455.42027344 -543.96875 454.63867188 C-543.63799878 452.76047742 -543.31799266 450.88039662 -543 449 C-542.34 449 -541.68 449 -541 449 C-541 447.35 -541 445.7 -541 444 C-540.34 444 -539.68 444 -539 444 C-538.67 440.7 -538.34 437.4 -538 434 C-537.01 434 -536.02 434 -535 434 C-534.90912109 433.00419922 -534.90912109 433.00419922 -534.81640625 431.98828125 C-533.98418278 423.21792619 -533.98418278 423.21792619 -533 419 C-532.34 419 -531.68 419 -531 419 C-530.81824219 418.07316406 -530.63648438 417.14632813 -530.44921875 416.19140625 C-530.19785156 414.99386719 -529.94648437 413.79632813 -529.6875 412.5625 C-529.32205078 410.77005859 -529.32205078 410.77005859 -528.94921875 408.94140625 C-528.63597656 407.97074219 -528.32273437 407.00007813 -528 406 C-527.01 405.67 -526.02 405.34 -525 405 C-524.34 401.37 -523.68 397.74 -523 394 C-522.01 394 -521.02 394 -520 394 C-519.87625 392.80375 -519.7525 391.6075 -519.625 390.375 C-519.17674946 386.72403187 -518.29553163 383.45475101 -517 380 C-516.34 380 -515.68 380 -515 380 C-514.89042969 379.36191406 -514.78085937 378.72382813 -514.66796875 378.06640625 C-514.43013672 376.82697266 -514.43013672 376.82697266 -514.1875 375.5625 C-514.03667969 374.73878906 -513.88585937 373.91507812 -513.73046875 373.06640625 C-513.48941406 372.38449219 -513.24835937 371.70257813 -513 371 C-512.01 370.67 -511.02 370.34 -510 370 C-509.30400689 367.99007796 -509.30400689 367.99007796 -509 365.625 C-508.42439075 361.94349919 -507.66803185 360.54296785 -505 358 C-504.67 356.845 -504.34 355.69 -504 354.5 C-502.97843667 350.92452833 -502.4427432 350.4427432 -500 348 C-499.67 346.845 -499.34 345.69 -499 344.5 C-497.97843667 340.92452833 -497.4427432 340.4427432 -495 338 C-494.67 336.845 -494.34 335.69 -494 334.5 C-492.99192526 330.97173841 -492.4751504 330.37201914 -490 328 C-489.67 327.01 -489.34 326.02 -489 325 C-488 322 -488 322 -486.5 320.5625 C-484.16013283 318.12513836 -483.78879223 315.21584524 -483 312 C-482.34 312.33 -481.68 312.66 -481 313 C-480.7525 312.278125 -480.505 311.55625 -480.25 310.8125 C-479 308 -479 308 -477 305.5625 C-474.82112264 302.77081339 -474.0884067 300.33778055 -473 297 C-471.6875 295.5 -471.6875 295.5 -470 294 C-466.34887145 289.99266379 -464.62507073 287.22344163 -463 282 C-461.6875 280.5 -461.6875 280.5 -460 279 C-456.32685347 274.96849771 -454.70047577 272.21479237 -453 267 C-451 264.8125 -451 264.8125 -449 263 C-448.34 262.01 -447.68 261.02 -447 260 C-446.34 260 -445.68 260 -445 260 C-444.34 257.69 -443.68 255.38 -443 253 C-442.01 253.33 -441.02 253.66 -440 254 C-440.103125 253.278125 -440.20625 252.55625 -440.3125 251.8125 C-439.87120408 247.8408367 -437.86652076 246.72279548 -435 244 C-433.2550312 242.20270829 -431.52587904 240.3899315 -429.8125 238.5625 C-428.95269531 237.65628906 -428.09289062 236.75007812 -427.20703125 235.81640625 C-424.92930839 232.90979 -423.93485548 230.54618365 -423 227 C-422.34 227.33 -421.68 227.66 -421 228 C-419.55245745 226.55245745 -419.44266439 224.96037087 -419 223 C-418.34 223 -417.68 223 -417 223 C-416.773125 222.443125 -416.54625 221.88625 -416.3125 221.3125 C-414.99246812 218.98672954 -413.47744503 217.3882093 -411.5546875 215.55078125 C-408.91813736 212.92085561 -406.51104496 210.0852289 -404.0625 207.28125 C-401.7875409 204.76500736 -399.40384329 202.39401974 -397 200 C-395.90397055 198.89981932 -394.80854936 197.79903246 -393.71362305 196.69775391 C-390.41739817 193.38363131 -387.11804479 190.07264202 -383.81762695 186.76269531 C-382.40200841 185.34204706 -380.98728856 183.9205027 -379.57348633 182.49804688 C-377.51364569 180.42596386 -375.45049212 178.35722771 -373.38671875 176.2890625 C-372.76560715 175.66278961 -372.14449554 175.03651672 -371.50456238 174.39126587 C-365.46221146 168.34815923 -359.02475629 162.80654242 -352.4453125 157.359375 C-350.74570157 155.86344602 -350.74570157 155.86344602 -349 153 C-348.34 153 -347.68 153 -347 153 C-347 152.34 -347 151.68 -347 151 C-346.34 151 -345.68 151 -345 151 C-345 150.34 -345 149.68 -345 149 C-343.02 148.67 -341.04 148.34 -339 148 C-339.66 147.67 -340.32 147.34 -341 147 C-341 146.34 -341 145.68 -341 145 C-340.05125 144.690625 -339.1025 144.38125 -338.125 144.0625 C-331.32814881 141.17521972 -326.07202556 135.21944689 -321.0625 129.9375 C-318.50124271 127.53147042 -317.34807967 128 -314 128 C-314.33 127.01 -314.66 126.02 -315 125 C-314.29875 124.773125 -313.5975 124.54625 -312.875 124.3125 C-310.34556758 123.15775911 -308.86931959 122.15892461 -306.8125 120.375 C-304 118 -304 118 -302 118 C-301.67 117.01 -301.34 116.02 -301 115 C-299.31522882 114.27323596 -297.62651204 113.55343673 -295.9140625 112.89453125 C-293.8573378 111.93332726 -292.39239948 110.80323723 -290.6875 109.3125 C-288 107 -288 107 -286 107 C-286 106.34 -286 105.68 -286 105 C-284.948125 104.5875 -283.89625 104.175 -282.8125 103.75 C-278.77844659 102.0222842 -275.54231932 99.75263559 -272.625 96.4375 C-271 95 -271 95 -267.625 93.5625 C-263.98243067 92.19575441 -263.98243067 92.19575441 -261.375 89.8125 C-258.63946602 87.72485564 -257.35544232 87.61652088 -254 88 C-254.33 87.01 -254.66 86.02 -255 85 C-252.03 84.01 -249.06 83.02 -246 82 C-246 81.34 -246 80.68 -246 80 C-245.46632813 79.76925781 -244.93265625 79.53851563 -244.3828125 79.30078125 C-238.48774534 76.72041448 -232.73864887 73.90911476 -227 71 C-225.33385352 70.16562711 -223.66718815 69.33228955 -222 68.5 C-220.7625 67.88125 -220.7625 67.88125 -219.5 67.25 C-202 58.5 -202 58.5 -199.5078125 57.2578125 C-197.81092245 56.40672434 -196.11829699 55.54708873 -194.4296875 54.6796875 C-187.86191721 51.32550512 -181.36061813 48.15009658 -174 47 C-174.33 46.34 -174.66 45.68 -175 45 C-173.78763672 44.72736328 -173.78763672 44.72736328 -172.55078125 44.44921875 C-171.48214844 44.19785156 -170.41351563 43.94648437 -169.3125 43.6875 C-167.72888672 43.32205078 -167.72888672 43.32205078 -166.11328125 42.94921875 C-163.00604142 42.00184199 -160.75625591 40.68238997 -158 39 C-155.54296875 38.26953125 -155.54296875 38.26953125 -153.1875 37.8125 C-152.39730469 37.65394531 -151.60710937 37.49539062 -150.79296875 37.33203125 C-150.20128906 37.22246094 -149.60960937 37.11289062 -149 37 C-149.66 36.34 -150.32 35.68 -151 35 C-145.39 34.01 -139.78 33.02 -134 32 C-134.33 31.34 -134.66 30.68 -135 30 C-129.72 29.01 -124.44 28.02 -119 27 C-119 26.34 -119 25.68 -119 25 C-117.17662109 24.70996094 -117.17662109 24.70996094 -115.31640625 24.4140625 C-113.73169374 24.15150658 -112.14706239 23.88846041 -110.5625 23.625 C-109.35883789 23.43550781 -109.35883789 23.43550781 -108.13085938 23.2421875 C-106.07479277 22.89517204 -104.03509869 22.45409572 -102 22 C-101.67 21.34 -101.34 20.68 -101 20 C-98.48828125 19.3671875 -98.48828125 19.3671875 -95.3125 18.875 C-94.27738281 18.70742188 -93.24226563 18.53984375 -92.17578125 18.3671875 C-89.08398337 18.00971025 -86.10906723 17.93474222 -83 18 C-83 17.01 -83 16.02 -83 15 C-82.05362671 14.87939209 -82.05362671 14.87939209 -81.08813477 14.75634766 C-78.24494428 14.38865528 -75.4037988 14.00702337 -72.5625 13.625 C-71.56927734 13.49867187 -70.57605469 13.37234375 -69.55273438 13.2421875 C-68.60849609 13.11328125 -67.66425781 12.984375 -66.69140625 12.8515625 C-65.81685791 12.73635254 -64.94230957 12.62114258 -64.04125977 12.50244141 C-63.36764404 12.33663574 -62.69402832 12.17083008 -62 12 C-61.67 11.34 -61.34 10.68 -61 10 C-58.54736328 9.51342773 -58.54736328 9.51342773 -55.3203125 9.18359375 C-54.16402344 9.05919922 -53.00773438 8.93480469 -51.81640625 8.80664062 C-49.98916016 8.62391602 -49.98916016 8.62391602 -48.125 8.4375 C-45.7314812 8.18897169 -43.33823579 7.93779194 -40.9453125 7.68359375 C-39.87812988 7.57587646 -38.81094727 7.46815918 -37.71142578 7.35717773 C-34.90988575 7.07530581 -34.90988575 7.07530581 -32 6 C-31.67 5.34 -31.34 4.68 -31 4 C-15.655 3.505 -15.655 3.505 0 3 C0 2.01 0 1.02 0 0 Z M-322 1144 C-321 1146 -321 1146 -321 1146 Z M-84 1260 C-83.34 1260.66 -82.68 1261.32 -82 1262 C-82 1261.34 -82 1260.68 -82 1260 C-82.66 1260 -83.32 1260 -84 1260 Z " fill="#0BA603" transform="translate(568,0)"/>
<path d="M0 0 C0 0.66 0 1.32 0 2 C0.804375 2.20625 1.60875 2.4125 2.4375 2.625 C10.06284922 5.56811724 16.58204781 11.01483787 23 16 C23.73992188 16.55300781 24.47984375 17.10601562 25.2421875 17.67578125 C32.07650394 22.98781225 38.17922944 28.96588246 44.3125 35.0625 C45.17262695 35.91344238 46.03275391 36.76438477 46.91894531 37.64111328 C51.74579426 42.49146656 56.08531366 47.39026625 60 53 C60.50088135 53.70439209 61.0017627 54.40878418 61.51782227 55.13452148 C63.58444097 58.04936708 65.63002179 60.97869619 67.67578125 63.90820312 C69.80389653 66.94172478 71.92795998 69.91131625 74.265625 72.7890625 C75.81875641 74.76895525 76.75422756 76.35320038 77.625 78.6875 C78.75804798 82.01270729 78.75804798 82.01270729 81 84 C81.73323398 85.89974258 82.46090545 87.80199399 83.1484375 89.71875 C84.58184198 93.55869594 86.31126502 97.26700688 88 101 C89.04845918 103.32484427 90.04752758 105.63662218 91 108 C91.35835937 108.88042969 91.71671875 109.76085937 92.0859375 110.66796875 C104.1201249 142.133153 114.01826558 189.94520327 103 223 C102.84080476 224.47513918 102.71291711 225.95378513 102.60546875 227.43359375 C102.04193792 233.44931263 100.74421088 239.20046958 99.3125 245.0625 C99.04920898 246.14998535 98.78591797 247.2374707 98.51464844 248.35791016 C93.01229136 270.48156296 93.01229136 270.48156296 88 278 C87.44522573 279.91325306 87.44522573 279.91325306 87.0625 281.9375 C86.27286392 285.33046753 85.20010828 287.27186574 83 290 C82.27998162 291.70617537 81.5604925 293.41257916 80.84545898 295.12084961 C79.55588616 297.98710489 77.92012954 300.59115377 76.25 303.25 C75.7250293 304.08688354 75.7250293 304.08688354 75.18945312 304.94067383 C74.12904487 306.62884185 73.06455985 308.3144469 72 310 C71.40703125 310.96808594 70.8140625 311.93617188 70.203125 312.93359375 C57.77146642 333.03524351 40.31991342 351.3999593 21 365 C20.01644531 365.69351562 19.03289063 366.38703125 18.01953125 367.1015625 C-4.84622891 382.74814607 -29.10289992 393.58585001 -56 400 C-56.7513623 400.17966309 -57.50272461 400.35932617 -58.27685547 400.54443359 C-88.48480136 407.53046703 -124.50674776 406.59468639 -154.4609375 398.90234375 C-156.45132084 398.3948619 -158.45327763 397.92064067 -160.4765625 397.56640625 C-163.40083458 396.91002939 -166.07178127 395.89546381 -168.86328125 394.81591797 C-170.96896222 394.01185195 -173.08626927 393.26487066 -175.21875 392.53515625 C-175.92386719 392.29216797 -176.62898437 392.04917969 -177.35546875 391.79882812 C-178.78396075 391.30835319 -180.21365483 390.82136526 -181.64453125 390.33789062 C-186.65955849 388.60050916 -191.29079823 386.43544298 -196 384 C-197.175625 383.43539063 -198.35125 382.87078125 -199.5625 382.2890625 C-205.52493773 379.4027006 -211.03132523 376.50305783 -216.21484375 372.33203125 C-218.62151517 370.53624361 -221.19696603 369.35039182 -223.90234375 368.0703125 C-227.7974044 366.08288863 -231.59999575 363.75463307 -235 361 C-235 360.34 -235 359.68 -235 359 C-235.82757812 358.87431641 -235.82757812 358.87431641 -236.671875 358.74609375 C-239.75418854 357.75830535 -241.73901284 356.09258173 -244.25 354.0625 C-245.14203125 353.35222656 -246.0340625 352.64195312 -246.953125 351.91015625 C-247.62859375 351.27980469 -248.3040625 350.64945313 -249 350 C-249 349.34 -249 348.68 -249 348 C-249.99 348.33 -250.98 348.66 -252 349 C-255.75010155 356.63482212 -256.31734075 366.04018111 -257.625 374.375 C-258.05207008 377.04990766 -258.48298651 379.72416977 -258.9140625 382.3984375 C-259.0992041 383.57067871 -259.2843457 384.74291992 -259.47509766 385.95068359 C-259.88784312 388.34844677 -260.40648631 390.64548345 -261 393 C-261.1734906 394.77462075 -261.34387887 396.54963643 -261.49365234 398.32641602 C-262.3900559 408.6666681 -264.08442687 418.84792652 -265.875 429.0625 C-266.00827698 429.82309723 -266.14155396 430.58369446 -266.27886963 431.36734009 C-266.41258972 432.13017303 -266.54630981 432.89300598 -266.68408203 433.67895508 C-266.95223692 435.20913163 -267.22030386 436.7393236 -267.48828125 438.26953125 C-267.61988647 439.02063675 -267.7514917 439.77174225 -267.88708496 440.54560852 C-269.02989128 447.10118151 -270.07014445 453.66995914 -271.0625 460.25 C-272.45605059 469.46571703 -273.8911623 478.67334348 -275.375 487.875 C-275.57971924 489.14529053 -275.78443848 490.41558105 -275.99536133 491.72436523 C-277.17819504 499.02749132 -278.38675717 506.32583672 -279.6171875 513.62109375 C-279.75325409 514.42971863 -279.88932068 515.23834351 -280.0295105 516.07147217 C-280.69296572 520.01372515 -281.35963046 523.95537556 -282.03271484 527.89599609 C-282.27761182 529.34332417 -282.52193304 530.7907498 -282.765625 532.23828125 C-282.93990524 533.26649994 -282.93990524 533.26649994 -283.1177063 534.31549072 C-283.87585831 538.90624541 -284.37725947 543.45862888 -284.58496094 548.10620117 C-285.12820983 550.58501392 -286.05335398 551.40171556 -288 553 C-290.95260434 553.29113176 -293.69343895 553.39933362 -296.64648438 553.37231445 C-297.5296785 553.37596512 -298.41287262 553.37961578 -299.3228302 553.38337708 C-302.24666482 553.39149307 -305.16994705 553.37786372 -308.09375 553.36328125 C-310.1225179 553.36276277 -312.15128631 553.36328 -314.18005371 553.36479187 C-318.43375133 553.3647021 -322.68725962 553.35426275 -326.94091797 553.33618164 C-332.39878031 553.31349438 -337.85636588 553.31294988 -343.31426239 553.31969929 C-347.50407377 553.32303764 -351.69382183 553.31641169 -355.88362122 553.30657005 C-357.89630299 553.30271546 -359.9089918 553.30157091 -361.92167664 553.3031559 C-364.73242664 553.30352594 -367.54281921 553.29092334 -370.35351562 553.2746582 C-371.60664299 553.27837433 -371.60664299 553.27837433 -372.88508606 553.28216553 C-376.77307184 553.24618058 -378.69055531 553.20629646 -382 551 C-381.87882812 550.39849121 -381.75765625 549.79698242 -381.6328125 549.17724609 C-380.39209728 542.99872289 -379.18254934 536.81490671 -378 530.625 C-377.835 529.7690625 -377.67 528.913125 -377.5 528.03125 C-375.59713525 518.07094234 -374.00452303 508.06626577 -372.44921875 498.046875 C-367.0193918 463.12170381 -367.0193918 463.12170381 -363.70385742 448.12133789 C-361.95275849 440.1056626 -360.71454654 432.04583379 -359.52099609 423.93066406 C-358.33669256 415.95833733 -356.94015585 408.04316306 -355.4375 400.125 C-353.80376758 391.51216879 -352.33352998 382.90681019 -351.09570312 374.22875977 C-350.09069833 367.30657631 -348.8113949 360.44973836 -347.44506836 353.59033203 C-346.54324044 349.02663346 -345.74771917 344.46368137 -345.0546875 339.86328125 C-344.01616191 332.97152264 -342.80221488 326.11478113 -341.56991577 319.25567627 C-339.0847888 305.40948723 -336.74810185 291.54532086 -334.5612793 277.64892578 C-334.36961182 276.4370459 -334.17794434 275.22516602 -333.98046875 273.9765625 C-333.81442139 272.91518066 -333.64837402 271.85379883 -333.47729492 270.76025391 C-333 268 -333 268 -332.37817383 265.77929688 C-331.46178801 261.46772822 -335.81999301 256.52953513 -338 253 C-339.68181943 250.51247173 -341.4148397 248.06941579 -343.1640625 245.62890625 C-346.69271515 240.57617597 -349.84735191 235.29251462 -353 230 C-353.42861328 229.28102539 -353.85722656 228.56205078 -354.29882812 227.82128906 C-360.29734551 217.71425658 -365.92263037 207.5120139 -371.05273438 196.93847656 C-372.32606135 194.33275073 -373.63540424 191.74581569 -374.94360352 189.1574707 C-387.6301634 164.01184268 -387.6301634 164.01184268 -391.91796875 152.75390625 C-392.83988993 150.40750037 -393.80640156 148.09352699 -394.80078125 145.77734375 C-398.9983774 135.99671313 -402.83872066 126.18331922 -406.2734375 116.11035156 C-407.02064039 113.94004856 -407.78825508 111.77798242 -408.5625 109.6171875 C-411.20573628 102.23832416 -413.74056279 94.85511295 -415.98828125 87.34375 C-416.75391459 84.81331703 -417.54284952 82.29658079 -418.35546875 79.78125 C-418.5867749 79.0601001 -418.81808105 78.3389502 -419.05639648 77.59594727 C-419.50858161 76.18877773 -419.96492783 74.78293649 -420.42602539 73.37866211 C-421.49222332 70.03835582 -422 67.55243143 -422 64 C-422.66 64 -423.32 64 -424 64 C-424.94306111 71.61348832 -425.13209357 79.11186159 -425.09765625 86.77758789 C-425.09546585 88.63542404 -425.09546585 88.63542404 -425.0932312 90.53079224 C-425.08944353 93.20276612 -425.08386376 95.87466235 -425.07516479 98.54661751 C-425.06155391 102.76931128 -425.05573081 106.99199463 -425.05102539 111.21470642 C-425.03997414 120.16398525 -425.02039401 129.11323834 -425 138.0625 C-424.97796381 147.7568065 -424.95742766 157.45110308 -424.94658184 167.14542955 C-424.94159139 171.34669542 -424.93172207 175.54791339 -424.91815186 179.74915993 C-424.90897964 182.96175525 -424.90618028 186.17435744 -424.90234375 189.38696289 C-424.89717743 190.55520096 -424.89201111 191.72343903 -424.88668823 192.92707825 C-424.88661774 193.98259888 -424.88654724 195.03811951 -424.88647461 196.12562561 C-424.884254 197.0482573 -424.88203339 197.970889 -424.87974548 198.92147923 C-425 201 -425 201 -426 202 C-425.99573304 203.95853332 -425.98377617 205.91733672 -425.93408203 207.87524414 C-425.56245053 223.59894236 -428.49298061 238.21210004 -431.9375 253.5 C-432.17807129 254.57386963 -432.41864258 255.64773926 -432.66650391 256.75415039 C-434.29373728 263.72469124 -436.45884599 270.31481021 -439 277 C-439.35320312 278.06605469 -439.70640625 279.13210938 -440.0703125 280.23046875 C-442.09317036 286.25654531 -444.5993333 292.11650078 -447 298 C-447.35320312 298.88945313 -447.70640625 299.77890625 -448.0703125 300.6953125 C-450.01904981 305.39520837 -452.4491065 309.09708222 -455.61328125 313.07421875 C-456.9883341 314.98379919 -457.87627221 316.75983328 -458.75 318.9375 C-460 322 -460 322 -462 323 C-462.474375 323.94875 -462.94875 324.8975 -463.4375 325.875 C-464.83172114 328.66344229 -465.82895945 329.91941947 -468 332 C-468.41636719 332.7321875 -468.83273437 333.464375 -469.26171875 334.21875 C-471.28860311 337.46176498 -473.70266254 340.16609305 -476.3125 342.9375 C-476.83666504 343.49671143 -477.36083008 344.05592285 -477.90087891 344.63208008 C-479.59378745 346.42795935 -481.29642066 348.21424519 -483 350 C-483.56219238 350.59619141 -484.12438477 351.19238281 -484.70361328 351.80664062 C-492.81699709 360.37734535 -501.21119818 367.43104416 -511 374 C-512.22614851 374.88107459 -513.45009548 375.76522064 -514.671875 376.65234375 C-516.98206643 378.31006522 -519.23135089 379.78808349 -521.8125 381 C-522.81410156 381.47953125 -522.81410156 381.47953125 -523.8359375 381.96875 C-524.55007813 382.3090625 -525.26421875 382.649375 -526 383 C-527.64681096 383.83139971 -529.29260295 384.66482007 -530.9375 385.5 C-558.94298426 399.43899672 -587.32696993 404.15095397 -618.3125 404.1875 C-619.08209045 404.18867828 -619.85168091 404.18985657 -620.64459229 404.19107056 C-635.06701606 404.1885714 -648.98517462 403.77152892 -663 400 C-663.77263184 399.79745605 -664.54526367 399.59491211 -665.34130859 399.38623047 C-689.53438902 393.00497484 -716.28212473 383.32342038 -735 366 C-735 365.34 -735 364.68 -735 364 C-736.31991943 363.65473267 -736.31991943 363.65473267 -737.66650391 363.30249023 C-741.4908683 361.80820402 -743.44468073 360.05749264 -746.3359375 357.16015625 C-746.81898346 356.67856552 -747.30202942 356.19697479 -747.79971313 355.70079041 C-748.81793708 354.68091293 -749.83124452 353.65610574 -750.83984375 352.62670898 C-752.35182214 351.0861165 -753.88119308 349.56469618 -755.4140625 348.04492188 C-761.6510333 341.79368565 -766.96249886 335.27433911 -772 328 C-773.32774865 326.2249755 -774.66048471 324.45366173 -776 322.6875 C-787.52185855 306.77743361 -795.636417 288.75571784 -801.37255859 270.04150391 C-801.92475824 268.24481384 -802.50148944 266.45570219 -803.08203125 264.66796875 C-806.53489345 253.51150962 -808.4072776 241.97903336 -810.4909668 230.50512695 C-810.97021936 227.88769835 -810.97021936 227.88769835 -812 225 C-813.53447123 213.39140788 -813.14144585 201.56614889 -813.12939453 189.88574219 C-813.13075154 187.66872631 -813.13253316 185.45171066 -813.13470459 183.23469543 C-813.13924006 177.25004613 -813.13750627 171.26541417 -813.1343255 165.28076458 C-813.13178557 159.01255435 -813.13414363 152.74434555 -813.13571167 146.47613525 C-813.13764304 135.29337566 -813.13454874 124.11062242 -813.12945233 112.92786434 C-813.12497215 102.78247209 -813.1257726 92.63709127 -813.13037109 82.49169922 C-813.13571617 70.6937278 -813.13771906 58.89576191 -813.13475883 47.09778905 C-813.13319711 40.857678 -813.13299979 34.61757484 -813.13629532 28.37746429 C-813.13917162 22.52350767 -813.13720285 16.66957278 -813.13140106 10.81561852 C-813.13007289 8.66165134 -813.13046854 6.50768236 -813.13266373 4.3537159 C-813.13537256 1.4273341 -813.13199761 -1.49897679 -813.12698364 -4.425354 C-813.12921436 -5.28903697 -813.13144509 -6.15271994 -813.13374341 -7.04257512 C-813.11415097 -12.88584903 -813.11415097 -12.88584903 -812 -14 C-809.18024137 -14.10053696 -806.38494262 -14.1361571 -803.56469727 -14.12939453 C-802.6801889 -14.13114685 -801.79568054 -14.13289917 -800.8843689 -14.13470459 C-797.94502836 -14.13912487 -795.00574745 -14.13618425 -792.06640625 -14.1328125 C-790.03238412 -14.13348555 -787.99836207 -14.13445558 -785.96434021 -14.13571167 C-781.69456214 -14.13718893 -777.42480495 -14.13503341 -773.1550293 -14.13037109 C-767.67241279 -14.1246774 -762.18984527 -14.12795036 -756.70723057 -14.13394356 C-752.50460946 -14.13755149 -748.30200003 -14.13640945 -744.09937859 -14.13381577 C-742.07749361 -14.13314695 -740.05560759 -14.13397333 -738.03372383 -14.13629532 C-735.21068629 -14.13882523 -732.38772882 -14.13497624 -729.56469727 -14.12939453 C-728.72254166 -14.13141876 -727.88038605 -14.13344299 -727.01271057 -14.13552856 C-721.22852636 -14.11426318 -721.22852636 -14.11426318 -719 -13 C-719.00276538 -11.89953118 -719.00553076 -10.79906237 -719.00837994 -9.66524601 C-719.07522623 17.21505337 -719.12439413 44.09534187 -719.15543652 70.97570705 C-719.17085059 83.97528999 -719.19183467 96.97481774 -719.22631836 109.97436523 C-719.25638899 121.31577837 -719.27561458 132.6571515 -719.28226548 143.9986034 C-719.28614806 149.9937985 -719.29515634 155.98887925 -719.31719017 161.9840374 C-722.05251012 206.49627143 -722.05251012 206.49627143 -710 248 C-709.87625 248.86625 -709.7525 249.7325 -709.625 250.625 C-708.78942038 255.13712994 -706.96986169 258.87875354 -705 263 C-704.67386719 263.73863281 -704.34773438 264.47726562 -704.01171875 265.23828125 C-694.46562001 285.89256761 -680.08931136 299.16846574 -660.3125 309.8125 C-659.62422119 310.18560303 -658.93594238 310.55870605 -658.22680664 310.94311523 C-644.96977095 317.90065247 -631.45383177 319.35168824 -616.625 319.3125 C-615.41328125 319.32861328 -614.2015625 319.34472656 -612.953125 319.36132812 C-588.76543654 319.37422135 -570.0503286 310.74426225 -552.48828125 294.5546875 C-545.69507477 287.58018665 -540.02353593 279.88530851 -536 271 C-535.34 270.34 -534.68 269.68 -534 269 C-533.27757752 266.93593577 -532.56694368 264.86712767 -531.91015625 262.78125 C-531.27766742 260.84849443 -530.59390667 258.9320729 -529.87109375 257.03125 C-527.14019902 249.84017923 -525.04201681 242.6632209 -523.25 235.1875 C-523.03939941 234.31641602 -522.82879883 233.44533203 -522.61181641 232.54785156 C-520.62513677 223.99260052 -519.85175648 215.63021537 -519.84851074 206.85641479 C-519.84427833 205.9813447 -519.84004592 205.10627461 -519.83568525 204.20468724 C-519.82275468 201.29644977 -519.81665663 198.38823964 -519.81054688 195.47998047 C-519.80259654 193.38478939 -519.79420796 191.28959994 -519.78541565 189.19441223 C-519.76740594 184.69287466 -519.75237318 180.19134056 -519.73963928 175.689785 C-519.7193418 168.56067372 -519.69169771 161.43160233 -519.66296387 154.30252075 C-519.60296497 139.16003263 -519.55111356 124.01752031 -519.5 108.875 C-519.44482573 92.54577636 -519.38816226 76.21656492 -519.32245111 59.88737977 C-519.29425291 52.81236755 -519.27060279 45.73735962 -519.25052643 38.6623199 C-519.23704792 34.24429509 -519.21964096 29.82629182 -519.20121574 25.40828514 C-519.19352293 23.37308617 -519.18742627 21.33788039 -519.18312263 19.30267143 C-519.15865439 8.15762507 -518.9304369 -2.88970685 -518 -14 C-497.04275908 -14.04666763 -476.08552669 -14.0819631 -455.1282444 -14.10362434 C-445.39797863 -14.11394821 -435.66774509 -14.12802968 -425.9375 -14.15087891 C-417.45916071 -14.17077888 -408.98084476 -14.18370835 -400.50248277 -14.18817699 C-396.01096037 -14.19079014 -391.51950475 -14.19695508 -387.02800369 -14.21146011 C-382.80426006 -14.2249905 -378.58061101 -14.2292319 -374.35684776 -14.22621536 C-372.80317738 -14.22676757 -371.24950398 -14.23077201 -369.69585228 -14.23841095 C-367.58134753 -14.24830132 -365.46720405 -14.24599083 -363.35269165 -14.24050903 C-361.57455298 -14.24327441 -361.57455298 -14.24327441 -359.76049232 -14.24609566 C-357 -14 -357 -14 -355 -12 C-354.23539402 -9.56191678 -353.55781534 -7.16168551 -352.9375 -4.6875 C-352.76412109 -4.02298828 -352.59074219 -3.35847656 -352.41210938 -2.67382812 C-351.71226023 0.03708178 -351.05008988 2.74434125 -350.51171875 5.4921875 C-349.80030095 8.97867779 -348.83562084 12.38840683 -347.875 15.8125 C-347.65835693 16.58803223 -347.44171387 17.36356445 -347.21850586 18.16259766 C-344.23214061 28.80002441 -341.12473679 39.40253995 -338 50 C-337.71415039 50.97018066 -337.42830078 51.94036133 -337.13378906 52.93994141 C-336.3217312 55.69014201 -335.50559464 58.43908976 -334.6875 61.1875 C-334.32410522 62.41605713 -334.32410522 62.41605713 -333.95336914 63.66943359 C-332.43667328 68.73722147 -330.65013366 73.53719926 -328.5 78.375 C-327 82 -327 82 -326.125 85.1875 C-324.89028766 89.37180294 -323.2739158 93.25313471 -321.5625 97.26171875 C-320.32550487 100.18321982 -319.1558546 103.12751424 -318 106.08203125 C-317.64953613 106.97446533 -317.29907227 107.86689941 -316.93798828 108.78637695 C-316.23897097 110.5708458 -315.54449915 112.35710309 -314.85498047 114.14526367 C-314.52900879 114.97388916 -314.20303711 115.80251465 -313.8671875 116.65625 C-313.57956543 117.39681641 -313.29194336 118.13738281 -312.99560547 118.90039062 C-312.04110787 121.09532399 -312.04110787 121.09532399 -310.38330078 123.14648438 C-309 125 -309 125 -309 127 C-308.34 127 -307.68 127 -307 127 C-306.67 127.66 -306.34 128.32 -306 129 C-304.50108875 127.50108875 -304.59360245 125.95723085 -304.25 123.875 C-300.45341044 104.18898008 -291.21913938 81.98152975 -279 66 C-278.67 65.319375 -278.34 64.63875 -278 63.9375 C-276.9171984 61.83957189 -275.66125696 60.66125696 -274 59 C-273.38125 57.948125 -273.38125 57.948125 -272.75 56.875 C-266.37876358 46.40796873 -257.42983335 37.79960528 -249 29 C-248.1853125 28.14277344 -247.370625 27.28554688 -246.53125 26.40234375 C-242.94485295 22.7092087 -239.23789206 19.50225569 -235.05859375 16.49609375 C-232.85676499 14.89590321 -230.7470141 13.20432415 -228.625 11.5 C-220.57358223 5.23748364 -211.50625565 0.54348249 -202.5 -4.1875 C-201.53191406 -4.70763672 -200.56382812 -5.22777344 -199.56640625 -5.76367188 C-194.13034753 -8.62033897 -188.93979203 -10.84388007 -182.97851562 -12.3527832 C-180.79728756 -12.90123542 -180.79728756 -12.90123542 -179 -15 C-176.95068359 -15.71435547 -176.95068359 -15.71435547 -174.3984375 -16.3671875 C-173.44477295 -16.61122314 -172.4911084 -16.85525879 -171.50854492 -17.10668945 C-170.4744751 -17.36023193 -169.44040527 -17.61377441 -168.375 -17.875 C-167.31063721 -18.13821045 -166.24627441 -18.4014209 -165.1496582 -18.67260742 C-108.17691277 -32.37936073 -52.12662506 -26.65866738 0 0 Z " fill="#FAFCFC" transform="translate(993,445)"/>
<path d="M0 0 C1.17554443 0.00346436 2.35108887 0.00692871 3.56225586 0.01049805 C12.60823849 0.12319148 20.93361503 1.01328684 29.6875 3.3125 C30.63367188 3.55226563 31.57984375 3.79203125 32.5546875 4.0390625 C37.44304966 5.39116267 42.01929624 7.21481605 46.61328125 9.35546875 C48.39992442 10.17981447 50.22864263 10.91183324 52.0625 11.625 C80.61018899 24.91444143 98.79240462 52.57009656 109.3125 81.3125 C120.57171178 113.85479863 119.97683276 150.846445 108.6875 183.3125 C108.14483232 185.04135278 107.60298055 186.77046223 107.0625 188.5 C105.97227751 191.7339184 104.55138319 194.43901341 102.6875 197.3125 C102.24664063 198.21226562 101.80578125 199.11203125 101.3515625 200.0390625 C95.31813433 211.90763716 87.25044914 224.11620833 76.6875 232.3125 C75.965625 233.075625 75.24375 233.83875 74.5 234.625 C71.20941393 237.7693378 67.65807084 240.2169566 63.89453125 242.76171875 C61.61968244 244.26562918 61.61968244 244.26562918 59.6875 246.3125 C58.02116073 247.04568928 56.35221529 247.77378177 54.66796875 248.46484375 C52.68587358 249.31319612 50.78964159 250.25966814 48.875 251.25 C22.54249309 264.49206682 -9.20142759 264.63342121 -37.1875 256.4375 C-39.23635693 255.75024156 -41.27835971 255.04216581 -43.3125 254.3125 C-44.34246094 253.95414063 -45.37242187 253.59578125 -46.43359375 253.2265625 C-60.49502051 248.09767 -77.59017654 241.03482346 -88.3125 230.3125 C-89.24320313 229.70019531 -90.17390625 229.08789062 -91.1328125 228.45703125 C-94.43717466 226.22841353 -97.30177416 223.72801261 -100.1875 221 C-101.24261264 220.01338426 -102.29860242 219.0277057 -103.35546875 218.04296875 C-104.11609619 217.33406494 -104.11609619 217.33406494 -104.89208984 216.61083984 C-106.71053154 214.94867536 -108.60233865 213.38310949 -110.5 211.8125 C-114.45278724 208.36501752 -117.72400191 204.50813547 -120.91015625 200.34765625 C-122.64340319 198.1578467 -124.28191343 196.31348544 -126.24609375 194.37109375 C-130.16879453 190.20902844 -133.23000128 186.43925606 -133.38623047 180.51806641 C-132.82223335 174.00665214 -131.41088868 167.68442534 -129.95214844 161.32373047 C-129.05362215 157.09379794 -128.58894596 152.86363807 -128.1875 148.5625 C-127.53363113 141.86368019 -127.53363113 141.86368019 -126.37866211 138.98486328 C-125.22459803 136.09217141 -124.48468806 133.25537454 -123.76171875 130.2265625 C-123.4778833 129.05552979 -123.19404785 127.88449707 -122.90161133 126.67797852 C-122.60407959 125.44362061 -122.30654785 124.2092627 -122 122.9375 C-119.80494197 113.9854311 -117.51758867 105.20022498 -114.4296875 96.51171875 C-112.89012133 92.10296107 -111.64483804 87.61765071 -110.40234375 83.1171875 C-109.17430161 79.95684968 -107.49060018 77.88898033 -105.3125 75.3125 C-104.58777036 73.69832943 -103.86880196 72.08081281 -103.203125 70.44140625 C-99.05749016 60.53188438 -93.58717974 51.95155182 -87.3125 43.3125 C-86.7865625 42.5596875 -86.260625 41.806875 -85.71875 41.03125 C-71.14994036 20.63491651 -47.82611325 6.42850613 -23.38134766 1.75170898 C-15.54515577 0.47042418 -7.93566473 -0.03839745 0 0 Z " fill="#0BA704" transform="translate(888.3125,503.6875)"/>
<path d="M0 0 C1.32 0.33 2.64 0.66 4 1 C4 1.66 4 2.32 4 3 C4.721875 3.226875 5.44375 3.45375 6.1875 3.6875 C9.57685109 5.26919718 11.5424688 7.20114502 14 10 C14.33 10.99 14.66 11.98 15 13 C16.32338632 13.68620031 17.65949948 14.34786461 19 15 C21.8703876 17.27239019 24.57352637 19.56098303 27.125 22.1875 C28.82609798 24.04621619 28.82609798 24.04621619 30.72802734 24.74291992 C34.06357769 26.58847642 36.55500453 29.24990361 39.2265625 31.92578125 C39.81545258 32.5103862 40.40434265 33.09499115 41.01107788 33.6973114 C42.25244335 34.93294439 43.49121053 36.17119249 44.72753906 37.41186523 C46.61660866 39.30409463 48.51860339 41.18261613 50.421875 43.06054688 C51.62841474 44.26481345 52.83417056 45.46986603 54.0390625 46.67578125 C54.60678375 47.23429276 55.174505 47.79280426 55.75942993 48.36824036 C58.80121572 51.44594406 60.53561089 53.86401928 62 58 C63.38537107 59.75989965 63.38537107 59.75989965 65.0390625 61.26171875 C65.90917969 62.10379883 65.90917969 62.10379883 66.796875 62.96289062 C67.40015625 63.53201172 68.0034375 64.10113281 68.625 64.6875 C70.8002116 66.75486883 72.91057513 68.84288953 75 71 C75 71.66 75 72.32 75 73 C75.639375 73.268125 76.27875 73.53625 76.9375 73.8125 C79 75 79 75 80 78 C80.66 78 81.32 78 82 78 C84.1875 80.8125 84.1875 80.8125 86 84 C85.505 85.485 85.505 85.485 85 87 C84.34 86.67 83.68 86.34 83 86 C82.690625 84.948125 82.690625 84.948125 82.375 83.875 C80.98795574 80.97481654 80.17930863 80.1427583 77.7722168 78.17236328 C71.25637925 72.60140882 65.31451942 66.43752026 59.26953125 60.3671875 C57.94794862 59.04373561 56.62614194 57.72050743 55.30412292 56.39749146 C51.84332578 52.93289923 48.38554073 49.46531632 44.92840576 45.99707031 C41.41307111 42.47149397 37.89489781 38.94875287 34.37695312 35.42578125 C28.69636232 29.73643165 23.01747218 24.0453914 17.34091187 18.35202026 C16.84075058 17.85041382 16.34058929 17.34880737 15.82527161 16.83200073 C15.3526269 16.35549953 14.87998219 15.87899834 14.39301491 15.38805771 C13.01111994 14.01108037 11.60093178 12.66268991 10.1907196 11.31472778 C8 9 8 9 7 6 C6.01 5.690625 5.02 5.38125 4 5.0625 C3.01 4.711875 2.02 4.36125 1 4 C0.125 1.875 0.125 1.875 0 0 Z " fill="#0FB702" transform="translate(1047,145)"/>
<path d="M0 0 C0.99 0.495 0.99 0.495 2 1 C1 4 1 4 -1.11393738 5.25312805 C-5.03759538 7.62803428 -7.96379959 10.70148936 -11.17700195 13.94995117 C-11.87998917 14.65264633 -12.58297638 15.35534149 -13.30726624 16.07933044 C-15.62237862 18.39583264 -17.9303322 20.71933143 -20.23828125 23.04296875 C-21.84495598 24.65337483 -23.45207376 26.26333901 -25.05961609 27.87287903 C-29.28411058 32.10500026 -33.50256374 36.34309384 -37.7197876 40.5824585 C-42.02635651 44.9095064 -46.33861091 49.23087997 -50.65039062 53.55273438 C-59.10583509 62.02961184 -67.55490823 70.51280949 -76 79 C-76.66 78.67 -77.32 78.34 -78 78 C-77.8125 76.25 -77.8125 76.25 -77 74 C-76.25105469 73.40574219 -75.50210938 72.81148438 -74.73046875 72.19921875 C-71.85265877 69.88132602 -69.78320564 67.46072406 -67.5 64.5625 C-64.51617918 60.78544512 -61.41871893 57.38526358 -58 54 C-56.90362901 52.90015968 -55.80823159 51.79934831 -54.71362305 50.69775391 C-51.41739817 47.38363131 -48.11804479 44.07264202 -44.81762695 40.76269531 C-43.40200841 39.34204706 -41.98728856 37.9205027 -40.57348633 36.49804688 C-38.51364569 34.42596386 -36.45049212 32.35722771 -34.38671875 30.2890625 C-33.45505135 29.34965317 -33.45505135 29.34965317 -32.50456238 28.39126587 C-26.46221146 22.34815923 -20.02475629 16.80654242 -13.4453125 11.359375 C-11.74570157 9.86344602 -11.74570157 9.86344602 -10 7 C-9.34 7 -8.68 7 -8 7 C-8 6.34 -8 5.68 -8 5 C-7.34 5 -6.68 5 -6 5 C-6 4.34 -6 3.68 -6 3 C-3.03 2.505 -3.03 2.505 0 2 C0 1.34 0 0.68 0 0 Z " fill="#10BC02" transform="translate(229,146)"/>
<path d="M0 0 C3.51890806 1.50515867 5.79443965 3.54120742 8.49316406 6.234375 C9.37377502 7.10868164 10.25438599 7.98298828 11.16168213 8.88378906 C12.1132522 9.83893795 13.06456036 10.79434784 14.015625 11.75 C14.99610659 12.72913398 15.97688487 13.70797093 16.95794678 14.68652344 C19.00876159 16.73439429 21.05592635 18.78582784 23.10058594 20.83984375 C25.72571808 23.47640015 28.35976695 26.10383645 30.99658585 28.72869873 C33.0212959 30.74619621 35.04123608 32.76841499 37.05974579 34.79211426 C38.02954931 35.76325438 39.00084742 36.73290428 39.97364044 37.7010498 C41.32872736 39.05107834 42.67675686 40.40817973 44.02441406 41.765625 C44.79400452 42.53680664 45.56359497 43.30798828 46.35650635 44.10253906 C48 46 48 46 48 48 C48.59296875 48.25394531 49.1859375 48.50789063 49.796875 48.76953125 C52.24397699 50.13626374 53.49347954 51.51742982 55.25 53.6875 C58.33720654 57.34814016 61.64663567 60.46768828 65.30078125 63.5546875 C68.27126688 66.08130746 70.58940957 68.94658546 73 72 C72.01 72.495 72.01 72.495 71 73 C71 72.34 71 71.68 71 71 C69.02 70.505 69.02 70.505 67 70 C66.9175 69.38125 66.835 68.7625 66.75 68.125 C66.22250125 65.8458972 66.22250125 65.8458972 64.16796875 65.0859375 C61.73767161 63.86859947 60.39245752 62.49478048 58.5625 60.5 C55.89965538 57.73959426 53.78408439 56.03202302 50 55 C50 54.01 50 53.02 50 52 C49.30994873 51.79673096 48.61989746 51.59346191 47.90893555 51.3840332 C44.01207672 49.52995912 41.47005605 46.90001946 38.45703125 43.85546875 C37.84736008 43.24866776 37.2376889 42.64186676 36.60954285 42.01667786 C35.32592954 40.73510087 34.04607631 39.44974812 32.76977539 38.16088867 C30.81913136 36.19418595 28.85301224 34.24399007 26.88476562 32.29492188 C25.63705783 31.04523157 24.39028101 29.79461093 23.14453125 28.54296875 C22.55807327 27.96258347 21.9716153 27.38219818 21.36738586 26.78422546 C18.30472838 23.66835758 16.41275725 21.21301936 15 17 C12.8510141 14.5640265 12.8510141 14.5640265 10.375 12.3125 C8.88184937 10.91119933 7.41410609 9.48102881 6 8 C6 7.34 6 6.68 6 6 C5.38125 5.7525 4.7625 5.505 4.125 5.25 C1.64931313 3.79371361 1.04874998 2.62187494 0 0 Z " fill="#0EAE02" transform="translate(152,1056)"/>
<path d="M0 0 C0.99 0.33 1.98 0.66 3 1 C2.34 1.33 1.68 1.66 1 2 C0.5359375 3.2375 0.5359375 3.2375 0.0625 4.5 C-0.288125 5.325 -0.63875 6.15 -1 7 C-1.99 7.33 -2.98 7.66 -4 8 C-4.33 8.66 -4.66 9.32 -5 10 C-5.33 10.66 -5.66 11.32 -6 12 C-6.99 12.33 -7.98 12.66 -9 13 C-9.28182129 13.56523376 -9.56364258 14.13046753 -9.85400391 14.71282959 C-11.44437729 17.88688487 -13.84364659 20.12209233 -16.3359375 22.59472656 C-16.87921692 23.14151062 -17.42249634 23.68829468 -17.98223877 24.25164795 C-19.77483523 26.05302948 -21.57462742 27.84701768 -23.375 29.640625 C-24.62317711 30.89014929 -25.87105719 32.13997035 -27.11865234 33.39007568 C-29.73145977 36.00582968 -32.34784601 38.61793646 -34.96679688 41.22753906 C-38.32975239 44.57907676 -41.683619 47.93954389 -45.03488159 51.30276871 C-47.60825584 53.88335399 -50.18635478 56.45917646 -52.76593018 59.03356171 C-54.00501499 60.27130915 -55.24260703 61.5105528 -56.47869873 62.75128937 C-58.20237239 64.48001837 -59.93228523 66.20224581 -61.6640625 67.92285156 C-62.17737122 68.44020874 -62.69067993 68.95756592 -63.21954346 69.49060059 C-66.77146816 73 -66.77146816 73 -69 73 C-69.268125 73.639375 -69.53625 74.27875 -69.8125 74.9375 C-71 77 -71 77 -74 78 C-74.4640625 78.99 -74.4640625 78.99 -74.9375 80 C-75.4634375 80.99 -75.4634375 80.99 -76 82 C-78.0625 82.625 -78.0625 82.625 -80 83 C-80.495 83.99 -80.495 83.99 -81 85 C-81 82 -81 82 -79.375 80.2948761 C-78.59125 79.63722763 -77.8075 78.97957916 -77 78.30200195 C-72.35497354 74.25536671 -67.9287072 70.05355877 -63.5625 65.70776367 C-62.8860997 65.03511128 -62.2096994 64.3624589 -61.51280212 63.6694231 C-59.33965774 61.50447508 -57.16959004 59.33647837 -55 57.16796875 C-53.47215808 55.64334571 -51.94424341 54.11879558 -50.41625977 52.59431458 C-47.23423285 49.4182395 -44.05424274 46.24014114 -40.87548828 43.06079102 C-36.80068419 38.98588464 -32.7190026 34.91794157 -28.6355896 30.85166454 C-25.48725349 27.71442801 -22.34345361 24.57267631 -19.20092773 21.42962074 C-17.69702448 19.92689736 -16.19149982 18.42579483 -14.68432617 16.92635155 C-12.58556298 14.83736208 -10.4932019 12.7421611 -8.40234375 10.64526367 C-7.78004379 10.02858322 -7.15774384 9.41190277 -6.5165863 8.77653503 C-5.94771194 8.20346619 -5.37883759 7.63039734 -4.79272461 7.03996277 C-4.29872665 6.54650958 -3.8047287 6.05305639 -3.29576111 5.54465008 C-1.84200959 3.81166289 -0.93587911 2.05213362 0 0 Z " fill="#11CF03" transform="translate(1131,1049)"/>
<path d="M0 0 C0.99 0.33 1.98 0.66 3 1 C3 1.66 3 2.32 3 3 C1.67548828 3.5878125 1.67548828 3.5878125 0.32421875 4.1875 C-3.17979543 6.09803182 -5.43321723 8.13042167 -8.1875 11 C-9.02667969 11.86625 -9.86585938 12.7325 -10.73046875 13.625 C-11.47941406 14.40875 -12.22835937 15.1925 -13 16 C-13.99675151 17.00323797 -14.99510213 18.00492198 -16 19 C-16.99 18.34 -17.98 17.68 -19 17 C-16.01602145 13.65196306 -13.01554631 10.31963501 -10 7 C-9.47019531 6.41347656 -8.94039062 5.82695312 -8.39453125 5.22265625 C-7.125 3.875 -7.125 3.875 -5 2 C-3.33333333 2 -1.66666667 2 0 2 C0 1.34 0 0.68 0 0 Z " fill="#11CD03" transform="translate(254,126)"/>
<path d="M0 0 C0.8203125 1.64453125 0.8203125 1.64453125 1 4 C-0.64910312 6.13537712 -2.19266364 7.84543693 -4.125 9.6875 C-4.61226562 10.18572266 -5.09953125 10.68394531 -5.6015625 11.19726562 C-8.59057536 14.12665721 -10.79023377 15.66846163 -15 16 C-12.77397185 9.32191555 -5.15634728 4.52725044 0 0 Z " fill="#11CE03" transform="translate(143,235)"/>
<path d="M0 0 C0.99 0.33 1.98 0.66 3 1 C2.01 1.495 2.01 1.495 1 2 C0.690625 2.825 0.38125 3.65 0.0625 4.5 C-0.288125 5.325 -0.63875 6.15 -1 7 C-1.99 7.33 -2.98 7.66 -4 8 C-4.68502385 9.32399568 -5.34859211 10.6591458 -6 12 C-7.32774288 13.4610504 -8.70631676 14.87708074 -10.125 16.25 C-10.84945313 16.95640625 -11.57390625 17.6628125 -12.3203125 18.390625 C-12.87460938 18.92171875 -13.42890625 19.4528125 -14 20 C-14.66 19.34 -15.32 18.68 -16 18 C-15.58637207 17.5968457 -15.17274414 17.19369141 -14.74658203 16.77832031 C-12.86743654 14.94086325 -10.99618964 13.0955569 -9.125 11.25 C-8.47402344 10.61578125 -7.82304688 9.9815625 -7.15234375 9.328125 C-6.21455078 8.4 -6.21455078 8.4 -5.2578125 7.453125 C-4.6817627 6.88754883 -4.10571289 6.32197266 -3.51220703 5.73925781 C-1.93690279 3.92742904 -0.97518974 2.18475984 0 0 Z " fill="#12D003" transform="translate(1151,1024)"/>
<path d="M0 0 C0.66 0.66 1.32 1.32 2 2 C0.38113585 3.67262717 -1.2452729 5.33795537 -2.875 7 C-4.23238281 8.3921875 -4.23238281 8.3921875 -5.6171875 9.8125 C-8 12 -8 12 -10 12 C-10.33 12.99 -10.66 13.98 -11 15 C-12.65204456 15.70211894 -14.31923769 16.36971413 -16 17 C-16.33 17.66 -16.66 18.32 -17 19 C-17.33 18.01 -17.66 17.02 -18 16 C-17.14148437 15.46890625 -16.28296875 14.9378125 -15.3984375 14.390625 C-11.69998764 11.92499176 -8.70782028 8.931775 -5.625 5.75 C-5.07972656 5.19570312 -4.53445313 4.64140625 -3.97265625 4.0703125 C-2.64377023 2.71811269 -1.32121452 1.3596965 0 0 Z " fill="#11CF03" transform="translate(1042,1135)"/>
<path d="M0 0 C0.99 0 1.98 0 3 0 C3 0.66 3 1.32 3 2 C4.32 2 5.64 2 7 2 C8.04644066 3.63790712 9.0398183 5.31008021 10 7 C10.886875 7.70125 11.77375 8.4025 12.6875 9.125 C13.450625 9.74375 14.21375 10.3625 15 11 C15 11.99 15 12.98 15 14 C11.26365925 13.45102011 9.85438524 12.07162192 7.5 9.1875 C5.57421455 6.87655746 3.69272463 4.69272463 1.5625 2.5625 C1.046875 2.046875 0.53125 1.53125 0 1 C0 0.67 0 0.34 0 0 Z " fill="#10BD02" transform="translate(1029,131)"/>
<path d="M0 0 C3.39859703 1.46966358 5.64963709 3.38037514 8.25 6 C8.95640625 6.70125 9.6628125 7.4025 10.390625 8.125 C12 10 12 10 12 12 C12.66 12 13.32 12 14 12 C14 12.66 14 13.32 14 14 C12.125 13.75 12.125 13.75 10 13 C9.3162955 11.67532254 8.65035814 10.34136367 8 9 C7.34 8.67 6.68 8.34 6 8 C3.48382409 6.74191204 3.19514208 5.4699603 2 3 C1.01 2.67 0.02 2.34 -1 2 C-0.67 1.34 -0.34 0.68 0 0 Z " fill="#11CF03" transform="translate(1135,236)"/>
<path d="M0 0 C3.83555225 1.5626324 6.13609725 4.06449968 9 7 C9.763125 7.556875 10.52625 8.11375 11.3125 8.6875 C12.1478125 9.3371875 12.1478125 9.3371875 13 10 C13 10.66 13 11.32 13 12 C9.3967764 11.69973137 8.27135597 11.31924232 5.875 8.5 C5.25625 7.675 4.6375 6.85 4 6 C3.01 5.67 2.02 5.34 1 5 C0.67 3.35 0.34 1.7 0 0 Z " fill="#10C503" transform="translate(132,1031)"/>
<path d="M0 0 C2.475 0.99 2.475 0.99 5 2 C4.67 2.99 4.34 3.98 4 5 C2.33927151 5.68132451 0.672233 6.34742127 -1 7 C-1.99 8.485 -1.99 8.485 -3 10 C-3.66 10 -4.32 10 -5 10 C-5.33 9.01 -5.66 8.02 -6 7 C-4.78515625 5.17578125 -4.78515625 5.17578125 -3.0625 3.3125 C-2.49660156 2.68988281 -1.93070312 2.06726563 -1.34765625 1.42578125 C-0.90292969 0.95527344 -0.45820313 0.48476562 0 0 Z " fill="#11CF03" transform="translate(267,115)"/>
<path d="M0 0 C2.475 0.99 2.475 0.99 5 2 C5 2.99 5 3.98 5 5 C4.05125 5.268125 3.1025 5.53625 2.125 5.8125 C-1.25267273 6.74986588 -1.25267273 6.74986588 -3 10 C-3.66 10 -4.32 10 -5 10 C-5.33 9.01 -5.66 8.02 -6 7 C-4.78515625 5.17578125 -4.78515625 5.17578125 -3.0625 3.3125 C-2.49660156 2.68988281 -1.93070312 2.06726563 -1.34765625 1.42578125 C-0.90292969 0.95527344 -0.45820313 0.48476562 0 0 Z " fill="#11CF03" transform="translate(282,105)"/>
<path d="M0 0 C1.65 0.33 3.3 0.66 5 1 C5 1.99 5 2.98 5 4 C4.05125 4.268125 3.1025 4.53625 2.125 4.8125 C-1.25267273 5.74986588 -1.25267273 5.74986588 -3 9 C-3.66 9 -4.32 9 -5 9 C-5.33 8.01 -5.66 7.02 -6 6 C-5.38125 5.566875 -4.7625 5.13375 -4.125 4.6875 C-1.7802755 3.00259517 -1.7802755 3.00259517 0 0 Z " fill="#12D003" transform="translate(297,96)"/>
<path d="M0 0 C1.32 0.33 2.64 0.66 4 1 C4 1.99 4 2.98 4 4 C4.61875 4.226875 5.2375 4.45375 5.875 4.6875 C8.61410209 6.37929835 9.05024472 7.99244161 10 11 C7.0625 9.6875 7.0625 9.6875 4 8 C3.67 7.01 3.34 6.02 3 5 C2.01 4.34 1.02 3.68 0 3 C0 2.01 0 1.02 0 0 Z " fill="#10C903" transform="translate(236,1135)"/>
<path d="M0 0 C0.99 0 1.98 0 3 0 C3 0.99 3 1.98 3 3 C2.34 3 1.68 3 1 3 C0.7525 3.598125 0.505 4.19625 0.25 4.8125 C-1.16370012 7.28647521 -2.65055383 8.43370255 -5 10 C-5.33 9.34 -5.66 8.68 -6 8 C-5.38125 7.4225 -4.7625 6.845 -4.125 6.25 C-2.18652947 4.19750179 -1.09985751 2.56633418 0 0 Z " fill="#11CE03" transform="translate(1161,1009)"/>
<path d="M0 0 C0.99 0 1.98 0 3 0 C3 0.99 3 1.98 3 3 C2.34 3 1.68 3 1 3 C0.7525 3.598125 0.505 4.19625 0.25 4.8125 C-1.16370012 7.28647521 -2.65055383 8.43370255 -5 10 C-5.33 9.34 -5.66 8.68 -6 8 C-5.38125 7.4225 -4.7625 6.845 -4.125 6.25 C-2.18652947 4.19750179 -1.09985751 2.56633418 0 0 Z " fill="#11CE03" transform="translate(1171,994)"/>
<path d="M0 0 C0.99 0 1.98 0 3 0 C3 0.99 3 1.98 3 3 C2.34 3 1.68 3 1 3 C0.7525 3.598125 0.505 4.19625 0.25 4.8125 C-1.16370012 7.28647521 -2.65055383 8.43370255 -5 10 C-5.33 9.34 -5.66 8.68 -6 8 C-5.38125 7.4225 -4.7625 6.845 -4.125 6.25 C-2.18652947 4.19750179 -1.09985751 2.56633418 0 0 Z " fill="#11CE03" transform="translate(1181,979)"/>
<path d="M0 0 C1.93742341 -0.02703381 3.87495479 -0.04641125 5.8125 -0.0625 C6.89144531 -0.07410156 7.97039063 -0.08570312 9.08203125 -0.09765625 C12 0 12 0 15 1 C15 1.66 15 2.32 15 3 C13.824375 2.835 12.64875 2.67 11.4375 2.5 C7.58726127 2.01271488 3.87741927 1.91922043 0 2 C0 1.34 0 0.68 0 0 Z " fill="#12D003" transform="translate(803,22)"/>
<path d="M0 0 C0.66 0.33 1.32 0.66 2 1 C0.5682479 6.01113235 -1.98445693 7.94469549 -6 11 C-6 8 -6 8 -4.6875 6.625 C-4.130625 6.08875 -3.57375 5.5525 -3 5 C-1.96642853 3.35394174 -0.95939668 1.69036558 0 0 Z " fill="#11CE03" transform="translate(1192,963)"/>
<path d="M0 0 C1.32 0.33 2.64 0.66 4 1 C4 2.32 4 3.64 4 5 C1.69 4.67 -0.62 4.34 -3 4 C-2.01 2.68 -1.02 1.36 0 0 Z " fill="#10C502" transform="translate(407,40)"/>
<path d="M0 0 C2.97 0 5.94 0 9 0 C9 0.66 9 1.32 9 2 C10.32 2.33 11.64 2.66 13 3 C11.20906809 3.08086147 9.41710372 3.13912702 7.625 3.1875 C6.12839844 3.23970703 6.12839844 3.23970703 4.6015625 3.29296875 C3.74304688 3.19628906 2.88453125 3.09960938 2 3 C1.34 2.01 0.68 1.02 0 0 Z " fill="#066502" transform="translate(801,19)"/>
<path d="M0 0 C5.28 0 10.56 0 16 0 C16 0.66 16 1.32 16 2 C10.72 1.67 5.44 1.34 0 1 C0 0.67 0 0.34 0 0 Z " fill="#000100" transform="translate(513,1270)"/>
<path d="M0 0 C1.52634923 3.05269846 0.83794444 5.75845689 0.5625 9.125 C0.46066406 10.40632812 0.35882812 11.68765625 0.25390625 13.0078125 C0.17011719 13.99523437 0.08632812 14.98265625 0 16 C-0.33 16 -0.66 16 -1 16 C-1.02685095 13.52076199 -1.04676547 11.0418116 -1.0625 8.5625 C-1.07506836 7.50192383 -1.07506836 7.50192383 -1.08789062 6.41992188 C-1.09653588 4.61306441 -1.05220011 2.80612397 -1 1 C-0.67 0.67 -0.34 0.34 0 0 Z " fill="#000100" transform="translate(1271,751)"/>
<path d="M0 0 C0.33 0 0.66 0 1 0 C1 5.61 1 11.22 1 17 C0.67 17 0.34 17 0 17 C0 11.39 0 5.78 0 0 Z " fill="#000100" transform="translate(1275,540)"/>
<path d="M0 0 C0.33 0 0.66 0 1 0 C1 5.28 1 10.56 1 16 C0.67 16 0.34 16 0 16 C0 10.72 0 5.44 0 0 Z " fill="#000100" transform="translate(1275,722)"/>
<path d="M0 0 C4.95 0 9.9 0 15 0 C15 0.33 15 0.66 15 1 C10.05 1 5.1 1 0 1 C0 0.67 0 0.34 0 0 Z " fill="#000100" transform="translate(542,1275)"/>
<path d="M0 0 C2.97 0 5.94 0 9 0 C9 0.33 9 0.66 9 1 C6.03 1 3.06 1 0 1 C0 0.67 0 0.34 0 0 Z " fill="#000100" transform="translate(757,1270)"/>
<path d="M0 0 C0.33 0 0.66 0 1 0 C1 2.97 1 5.94 1 9 C0.67 9 0.34 9 0 9 C0 6.03 0 3.06 0 0 Z " fill="#000100" transform="translate(1260,801)"/>
<path d="M0 0 C0.33 0 0.66 0 1 0 C1 2.97 1 5.94 1 9 C0.67 9 0.34 9 0 9 C0 6.03 0 3.06 0 0 Z " fill="#000100" transform="translate(1270,514)"/>
<path d="M0 0 C0.33 0 0.66 0 1 0 C1 2.97 1 5.94 1 9 C0.67 9 0.34 9 0 9 C0 6.03 0 3.06 0 0 Z " fill="#000100" transform="translate(1265,490)"/>
<path d="M0 0 C0.33 0 0.66 0 1 0 C1.33 2.64 1.66 5.28 2 8 C1.34 7.67 0.68 7.34 0 7 C0 4.69 0 2.38 0 0 Z " fill="#000100" transform="translate(1235,397)"/>
<path d="M0 0 C2.64 0 5.28 0 8 0 C8 0.33 8 0.66 8 1 C5.36 1 2.72 1 0 1 C0 0.67 0 0.34 0 0 Z " fill="#000100" transform="translate(782,1265)"/>
<path d="M0 0 C2.64 0 5.28 0 8 0 C8 0.33 8 0.66 8 1 C5.36 1 2.72 1 0 1 C0 0.67 0 0.34 0 0 Z " fill="#000100" transform="translate(470,1260)"/>
<path d="M0 0 C0.33 0 0.66 0 1 0 C1 2.64 1 5.28 1 8 C0.67 8 0.34 8 0 8 C0 5.36 0 2.72 0 0 Z " fill="#000100" transform="translate(1265,781)"/>
<path d="M0 0 C0.33 0 0.66 0 1 0 C1 2.64 1 5.28 1 8 C0.67 8 0.34 8 0 8 C0 5.36 0 2.72 0 0 Z " fill="#000100" transform="translate(1260,471)"/>
<path d="M0 0 C2.31 0 4.62 0 7 0 C7 0.33 7 0.66 7 1 C4.69 1 2.38 1 0 1 C0 0.67 0 0.34 0 0 Z " fill="#000100" transform="translate(491,1265)"/>
<path d="M0 0 C2.31 0 4.62 0 7 0 C7 0.33 7 0.66 7 1 C4.69 1 2.38 1 0 1 C0 0.67 0 0.34 0 0 Z " fill="#000100" transform="translate(802,1260)"/>
<path d="M0 0 C1.98 0 3.96 0 6 0 C6 0.33 6 0.66 6 1 C4.02 1 2.04 1 0 1 C0 0.67 0 0.34 0 0 Z " fill="#000100" transform="translate(877,1235)"/>
<path d="M0 0 C1.65 0 3.3 0 5 0 C4.67 0.66 4.34 1.32 4 2 C2.68 1.34 1.36 0.68 0 0 Z " fill="#000100" transform="translate(374,1225)"/>
<path d="M0 0 C1.65 0 3.3 0 5 0 C4.67 0.66 4.34 1.32 4 2 C2.68 1.34 1.36 0.68 0 0 Z " fill="#000100" transform="translate(364,1220)"/>
<path d="M0 0 C1.65 0 3.3 0 5 0 C4.67 0.66 4.34 1.32 4 2 C2.68 1.34 1.36 0.68 0 0 Z " fill="#000100" transform="translate(354,1215)"/>
<path d="M0 0 C1.65 0 3.3 0 5 0 C4.67 0.66 4.34 1.32 4 2 C2.68 1.34 1.36 0.68 0 0 Z " fill="#000100" transform="translate(344,1210)"/>
<path d="M0 0 C1.65 0 3.3 0 5 0 C4.67 0.66 4.34 1.32 4 2 C2.68 1.34 1.36 0.68 0 0 Z " fill="#000100" transform="translate(334,1205)"/>
<path d="M0 0 C0.99 0.495 0.99 0.495 2 1 C1.34 2.32 0.68 3.64 0 5 C0 3.35 0 1.7 0 0 Z " fill="#000100" transform="translate(1205,941)"/>
<path d="M0 0 C0.99 0.495 0.99 0.495 2 1 C1.34 2.32 0.68 3.64 0 5 C0 3.35 0 1.7 0 0 Z " fill="#000100" transform="translate(1210,931)"/>
<path d="M0 0 C0.99 0.495 0.99 0.495 2 1 C1.34 2.32 0.68 3.64 0 5 C0 3.35 0 1.7 0 0 Z " fill="#000100" transform="translate(1215,921)"/>
<path d="M0 0 C0.99 0.495 0.99 0.495 2 1 C1.34 2.32 0.68 3.64 0 5 C0 3.35 0 1.7 0 0 Z " fill="#000100" transform="translate(1220,911)"/>
<path d="M0 0 C0.99 0.495 0.99 0.495 2 1 C1.34 2.32 0.68 3.64 0 5 C0 3.35 0 1.7 0 0 Z " fill="#000100" transform="translate(1225,901)"/>
<path d="M0 0 C0.33 0 0.66 0 1 0 C1 1.98 1 3.96 1 6 C0.67 6 0.34 6 0 6 C0 4.02 0 2.04 0 0 Z " fill="#000100" transform="translate(1255,453)"/>
<path d="M0 0 C0.33 0 0.66 0 1 0 C1 1.98 1 3.96 1 6 C0.67 6 0.34 6 0 6 C0 4.02 0 2.04 0 0 Z " fill="#000100" transform="translate(1250,437)"/>
<path d="M0 0 C0.66 1.32 1.32 2.64 2 4 C1.01 4.495 1.01 4.495 0 5 C0 3.35 0 1.7 0 0 Z " fill="#000100" transform="translate(1220,364)"/>
<path d="M0 0 C0.66 1.32 1.32 2.64 2 4 C1.01 4.495 1.01 4.495 0 5 C0 3.35 0 1.7 0 0 Z " fill="#000100" transform="translate(1215,354)"/>
<path d="M0 0 C0.66 1.32 1.32 2.64 2 4 C1.01 4.495 1.01 4.495 0 5 C0 3.35 0 1.7 0 0 Z " fill="#000100" transform="translate(1210,344)"/>
<path d="M0 0 C1.65 0 3.3 0 5 0 C5 0.33 5 0.66 5 1 C3.35 1 1.7 1 0 1 C0 0.67 0 0.34 0 0 Z " fill="#000100" transform="translate(838,1250)"/>
<path d="M0 0 C1.65 0 3.3 0 5 0 C5 0.33 5 0.66 5 1 C3.35 1 1.7 1 0 1 C0 0.67 0 0.34 0 0 Z " fill="#000100" transform="translate(438,1250)"/>
<path d="M0 0 C1.65 0 3.3 0 5 0 C5 0.33 5 0.66 5 1 C3.35 1 1.7 1 0 1 C0 0.67 0 0.34 0 0 Z " fill="#000100" transform="translate(398,1235)"/>
<path d="M0 0 C0.33 0 0.66 0 1 0 C1 1.65 1 3.3 1 5 C0.67 5 0.34 5 0 5 C0 3.35 0 1.7 0 0 Z " fill="#000100" transform="translate(1235,877)"/>
<path d="M0 0 C0.33 0 0.66 0 1 0 C1 1.65 1 3.3 1 5 C0.67 5 0.34 5 0 5 C0 3.35 0 1.7 0 0 Z " fill="#000100" transform="translate(1250,837)"/>
<path d="M0 0 C0.33 0 0.66 0 1 0 C1 1.65 1 3.3 1 5 C0.67 5 0.34 5 0 5 C0 3.35 0 1.7 0 0 Z " fill="#000100" transform="translate(1245,423)"/>
<path d="M0 0 C0.66 1.32 1.32 2.64 2 4 C1.34 4 0.68 4 0 4 C0 2.68 0 1.36 0 0 Z " fill="#000100" transform="translate(1225,375)"/>
<path d="M0 0 C0.66 1.32 1.32 2.64 2 4 C1.34 4 0.68 4 0 4 C0 2.68 0 1.36 0 0 Z " fill="#000100" transform="translate(1205,335)"/>
<path d="M0 0 C0.66 1.32 1.32 2.64 2 4 C1.34 4 0.68 4 0 4 C0 2.68 0 1.36 0 0 Z " fill="#000100" transform="translate(1200,325)"/>
<path d="M0 0 C4 1 4 1 4 1 Z " fill="#000100" transform="translate(823,1255)"/>
<path d="M0 0 C4 1 4 1 4 1 Z " fill="#000100" transform="translate(454,1255)"/>
<path d="M0 0 C4 1 4 1 4 1 Z " fill="#000100" transform="translate(853,1245)"/>
<path d="M0 0 C4 1 4 1 4 1 Z " fill="#000100" transform="translate(424,1245)"/>
<path d="M0 0 C4 1 4 1 4 1 Z " fill="#000100" transform="translate(410,1240)"/>
<path d="M0 0 C4 1 4 1 4 1 Z " fill="#000100" transform="translate(912,1220)"/>
<path d="M0 0 C4 1 4 1 4 1 Z " fill="#000100" transform="translate(922,1215)"/>
<path d="M0 0 C4 1 4 1 4 1 Z " fill="#000100" transform="translate(932,1210)"/>
<path d="M0 0 C0.99 0 1.98 0 3 0 C2.67 0.66 2.34 1.32 2 2 C1.34 1.34 0.68 0.68 0 0 Z " fill="#000100" transform="translate(326,1200)"/>
<path d="M0 0 C0.99 0.495 0.99 0.495 2 1 C1.34 1.66 0.68 2.32 0 3 C0 2.01 0 1.02 0 0 Z " fill="#000100" transform="translate(1200,951)"/>
<path d="M0 0 C1 4 1 4 1 4 Z " fill="#000100" transform="translate(1240,866)"/>
<path d="M0 0 C1 4 1 4 1 4 Z " fill="#000100" transform="translate(1245,852)"/>
<path d="M0 0 C1 4 1 4 1 4 Z " fill="#000100" transform="translate(1255,822)"/>
<path d="M0 0 C1 4 1 4 1 4 Z " fill="#000100" transform="translate(1240,410)"/>
<path d="M0 0 C1 4 1 4 1 4 Z " fill="#000100" transform="translate(1230,385)"/>
<path d="M0 0 C3 1 3 1 3 1 Z " fill="#000100" transform="translate(867,1240)"/>
<path d="M0 0 C3 1 3 1 3 1 Z " fill="#000100" transform="translate(892,1230)"/>
<path d="M0 0 C3 1 3 1 3 1 Z " fill="#000100" transform="translate(386,1230)"/>
<path d="M0 0 C3 1 3 1 3 1 Z " fill="#000100" transform="translate(902,1225)"/>
<path d="M0 0 C3 1 3 1 3 1 Z " fill="#000100" transform="translate(942,1205)"/>
<path d="M0 0 C3 1 3 1 3 1 Z " fill="#000100" transform="translate(952,1200)"/>
<path d="M0 0 C3 1 3 1 3 1 Z " fill="#000100" transform="translate(316,1195)"/>
<path d="M0 0 C3 1 3 1 3 1 Z " fill="#000100" transform="translate(977,1185)"/>
<path d="M0 0 C3 1 3 1 3 1 Z " fill="#000100" transform="translate(300,1185)"/>
<path d="M0 0 C3 1 3 1 3 1 Z " fill="#000100" transform="translate(992,1175)"/>
<path d="M0 0 C3 1 3 1 3 1 Z " fill="#000100" transform="translate(285,1175)"/>
<path d="M0 0 C3 1 3 1 3 1 Z " fill="#000100" transform="translate(1007,1165)"/>
<path d="M0 0 C3 1 3 1 3 1 Z " fill="#000100" transform="translate(270,1165)"/>
<path d="" fill="#000100" transform="translate(0,0)"/>
<path d="" fill="#000100" transform="translate(0,0)"/>
<path d="" fill="#000100" transform="translate(0,0)"/>
<path d="" fill="#000100" transform="translate(0,0)"/>
<path d="M0 0 C2 1 2 1 2 1 Z " fill="#000100" transform="translate(961,1195)"/>
<path d="M0 0 C2 1 2 1 2 1 Z " fill="#000100" transform="translate(1047,1135)"/>
<path d="M0 0 C2 1 2 1 2 1 Z " fill="#000100" transform="translate(231,1135)"/>
<path d="" fill="#000100" transform="translate(0,0)"/>
<path d="" fill="#000100" transform="translate(0,0)"/>
<path d="" fill="#000100" transform="translate(0,0)"/>
<path d="" fill="#000100" transform="translate(0,0)"/>
<path d="" fill="#000100" transform="translate(0,0)"/>
<path d="" fill="#000100" transform="translate(0,0)"/>
<path d="" fill="#12D003" transform="translate(0,0)"/>
<path d="" fill="#12D003" transform="translate(0,0)"/>
<path d="" fill="#12D003" transform="translate(0,0)"/>
<path d="" fill="#12D003" transform="translate(0,0)"/>
<path d="" fill="#12D003" transform="translate(0,0)"/>
<path d="" fill="#000100" transform="translate(0,0)"/>
<path d="" fill="#000100" transform="translate(0,0)"/>
<path d="" fill="#000100" transform="translate(0,0)"/>
<path d="" fill="#000100" transform="translate(0,0)"/>
<path d="" fill="#000100" transform="translate(0,0)"/>
<path d="" fill="#000100" transform="translate(0,0)"/>
<path d="" fill="#000100" transform="translate(0,0)"/>
<path d="" fill="#000100" transform="translate(0,0)"/>
<path d="" fill="#12D003" transform="translate(0,0)"/>
<path d="" fill="#000100" transform="translate(0,0)"/>
<path d="" fill="#000100" transform="translate(0,0)"/>
<path d="" fill="#000100" transform="translate(0,0)"/>
<path d="" fill="#000100" transform="translate(0,0)"/>
<path d="" fill="#000100" transform="translate(0,0)"/>
<path d="" fill="#000100" transform="translate(0,0)"/>
<path d="" fill="#000100" transform="translate(0,0)"/>
<path d="" fill="#000100" transform="translate(0,0)"/>
<path d="" fill="#000100" transform="translate(0,0)"/>
<path d="" fill="#000100" transform="translate(0,0)"/>
<path d="" fill="#000100" transform="translate(0,0)"/>
<path d="" fill="#000100" transform="translate(0,0)"/>
<path d="" fill="#000100" transform="translate(0,0)"/>
<path d="" fill="#000100" transform="translate(0,0)"/>
<path d="" fill="#000100" transform="translate(0,0)"/>
<path d="" fill="#000100" transform="translate(0,0)"/>
<path d="" fill="#000100" transform="translate(0,0)"/>
<path d="" fill="#000100" transform="translate(0,0)"/>
<path d="" fill="#000100" transform="translate(0,0)"/>
<path d="" fill="#000100" transform="translate(0,0)"/>
<path d="" fill="#000100" transform="translate(0,0)"/>
<path d="" fill="#000100" transform="translate(0,0)"/>
<path d="" fill="#000100" transform="translate(0,0)"/>
<path d="" fill="#000100" transform="translate(0,0)"/>
<path d="" fill="#000100" transform="translate(0,0)"/>
<path d="" fill="#000100" transform="translate(0,0)"/>
<path d="" fill="#000100" transform="translate(0,0)"/>
<path d="" fill="#000100" transform="translate(0,0)"/>
<path d="" fill="#000100" transform="translate(0,0)"/>
<path d="" fill="#000100" transform="translate(0,0)"/>
<path d="" fill="#000100" transform="translate(0,0)"/>
<path d="" fill="#000100" transform="translate(0,0)"/>
<path d="" fill="#000100" transform="translate(0,0)"/>
<path d="" fill="#000100" transform="translate(0,0)"/>
<path d="" fill="#000100" transform="translate(0,0)"/>
<path d="" fill="#000100" transform="translate(0,0)"/>
<path d="" fill="#000100" transform="translate(0,0)"/>
<path d="" fill="#000100" transform="translate(0,0)"/>
<path d="" fill="#000100" transform="translate(0,0)"/>
<path d="" fill="#000100" transform="translate(0,0)"/>
<path d="" fill="#000100" transform="translate(0,0)"/>
<path d="" fill="#000100" transform="translate(0,0)"/>
<path d="" fill="#000100" transform="translate(0,0)"/>
<path d="" fill="#000100" transform="translate(0,0)"/>
<path d="" fill="#000100" transform="translate(0,0)"/>
<path d="" fill="#000100" transform="translate(0,0)"/>
<path d="" fill="#000100" transform="translate(0,0)"/>
<path d="" fill="#000100" transform="translate(0,0)"/>
<path d="" fill="#000100" transform="translate(0,0)"/>
<path d="" fill="#000100" transform="translate(0,0)"/>
<path d="" fill="#000100" transform="translate(0,0)"/>
<path d="" fill="#000100" transform="translate(0,0)"/>
<path d="" fill="#000100" transform="translate(0,0)"/>
<path d="" fill="#000100" transform="translate(0,0)"/>
<path d="" fill="#000100" transform="translate(0,0)"/>
<path d="" fill="#000100" transform="translate(0,0)"/>
<path d="" fill="#000100" transform="translate(0,0)"/>
<path d="" fill="#000100" transform="translate(0,0)"/>
<path d="" fill="#000100" transform="translate(0,0)"/>
<path d="" fill="#000100" transform="translate(0,0)"/>
<path d="" fill="#000100" transform="translate(0,0)"/>
<path d="" fill="#000100" transform="translate(0,0)"/>
<path d="" fill="#000100" transform="translate(0,0)"/>
<path d="" fill="#000100" transform="translate(0,0)"/>
<path d="" fill="#000100" transform="translate(0,0)"/>
<path d="" fill="#000100" transform="translate(0,0)"/>
<path d="" fill="#000100" transform="translate(0,0)"/>
<path d="" fill="#000100" transform="translate(0,0)"/>
<path d="" fill="#000100" transform="translate(0,0)"/>
<path d="" fill="#000100" transform="translate(0,0)"/>
<path d="" fill="#000100" transform="translate(0,0)"/>
<path d="" fill="#000100" transform="translate(0,0)"/>
<path d="" fill="#000100" transform="translate(0,0)"/>
<path d="" fill="#000100" transform="translate(0,0)"/>
<path d="" fill="#000100" transform="translate(0,0)"/>
<path d="" fill="#000100" transform="translate(0,0)"/>
<path d="" fill="#000100" transform="translate(0,0)"/>
<path d="" fill="#000100" transform="translate(0,0)"/>
<path d="" fill="#000100" transform="translate(0,0)"/>
<path d="" fill="#005F02" transform="translate(0,0)"/>
<path d="" fill="#000100" transform="translate(0,0)"/>
<path d="" fill="#000100" transform="translate(0,0)"/>
<path d="" fill="#000100" transform="translate(0,0)"/>
<path d="" fill="#000100" transform="translate(0,0)"/>
<path d="" fill="#000100" transform="translate(0,0)"/>
<path d="" fill="#000100" transform="translate(0,0)"/>
<path d="" fill="#000100" transform="translate(0,0)"/>
<path d="" fill="#000100" transform="translate(0,0)"/>
<path d="" fill="#000100" transform="translate(0,0)"/>
<path d="" fill="#000100" transform="translate(0,0)"/>
<path d="" fill="#000100" transform="translate(0,0)"/>
<path d="" fill="#000100" transform="translate(0,0)"/>
<path d="" fill="#000100" transform="translate(0,0)"/>
<path d="" fill="#000100" transform="translate(0,0)"/>
<path d="" fill="#000100" transform="translate(0,0)"/>
<path d="" fill="#000100" transform="translate(0,0)"/>
<path d="" fill="#000100" transform="translate(0,0)"/>
<path d="" fill="#000100" transform="translate(0,0)"/>
<path d="" fill="#000100" transform="translate(0,0)"/>
<path d="" fill="#000100" transform="translate(0,0)"/>
<path d="" fill="#000100" transform="translate(0,0)"/>
<path d="" fill="#000100" transform="translate(0,0)"/>
<path d="" fill="#000100" transform="translate(0,0)"/>
<path d="" fill="#000100" transform="translate(0,0)"/>
<path d="" fill="#000100" transform="translate(0,0)"/>
<path d="" fill="#000100" transform="translate(0,0)"/>
<path d="" fill="#000100" transform="translate(0,0)"/>
<path d="" fill="#000100" transform="translate(0,0)"/>
<path d="" fill="#000100" transform="translate(0,0)"/>
<path d="" fill="#000100" transform="translate(0,0)"/>
<path d="" fill="#000100" transform="translate(0,0)"/>
<path d="" fill="#000100" transform="translate(0,0)"/>
<path d="" fill="#000100" transform="translate(0,0)"/>
<path d="" fill="#000100" transform="translate(0,0)"/>
<path d="" fill="#000100" transform="translate(0,0)"/>
<path d="" fill="#000100" transform="translate(0,0)"/>
<path d="" fill="#000100" transform="translate(0,0)"/>
<path d="" fill="#000100" transform="translate(0,0)"/>
<path d="" fill="#000100" transform="translate(0,0)"/>
<path d="" fill="#000100" transform="translate(0,0)"/>
<path d="" fill="#000100" transform="translate(0,0)"/>
<path d="" fill="#000100" transform="translate(0,0)"/>
<path d="" fill="#000100" transform="translate(0,0)"/>
<path d="" fill="#000100" transform="translate(0,0)"/>
<path d="" fill="#000100" transform="translate(0,0)"/>
<path d="" fill="#000100" transform="translate(0,0)"/>
<path d="" fill="#000100" transform="translate(0,0)"/>
<path d="" fill="#000100" transform="translate(0,0)"/>
<path d="" fill="#000100" transform="translate(0,0)"/>
<path d="" fill="#000100" transform="translate(0,0)"/>
<path d="" fill="#000100" transform="translate(0,0)"/>
<path d="" fill="#000100" transform="translate(0,0)"/>
<path d="" fill="#000100" transform="translate(0,0)"/>
<path d="" fill="#000100" transform="translate(0,0)"/>
<path d="" fill="#000100" transform="translate(0,0)"/>
<path d="" fill="#000100" transform="translate(0,0)"/>
<path d="" fill="#000100" transform="translate(0,0)"/>
<path d="" fill="#12D003" transform="translate(0,0)"/>
<path d="" fill="#0BA704" transform="translate(0,0)"/>
</svg>
